<svg preserveAspectRatio="xMidYMid meet" width="505" style="max-width:100%;height:auto" id="d48cf444540759c8f" xmlns="http://www.w3.org/2000/svg" class="flowchart" viewBox="0 0 504.296875 774.5" role="graphics-document document" aria-roledescription="flowchart-v2"><style>#d48cf444540759c8f{font-family:system-ui,-apple-system,"Segoe UI",Roboto,sans-serif;font-size:13px;fill:#EDE6D7;}@keyframes edge-animation-frame{from{stroke-dashoffset:0;}}@keyframes dash{to{stroke-dashoffset:0;}}#d48cf444540759c8f .edge-animation-slow{stroke-dasharray:9,5!important;stroke-dashoffset:900;animation:dash 50s linear infinite;stroke-linecap:round;}#d48cf444540759c8f .edge-animation-fast{stroke-dasharray:9,5!important;stroke-dashoffset:900;animation:dash 20s linear infinite;stroke-linecap:round;}#d48cf444540759c8f .error-icon{fill:#16140F;}#d48cf444540759c8f .error-text{fill:#B4AA95;stroke:#B4AA95;}#d48cf444540759c8f .edge-thickness-normal{stroke-width:1px;}#d48cf444540759c8f .edge-thickness-thick{stroke-width:3.5px;}#d48cf444540759c8f .edge-pattern-solid{stroke-dasharray:0;}#d48cf444540759c8f .edge-thickness-invisible{stroke-width:0;fill:none;}#d48cf444540759c8f .edge-pattern-dashed{stroke-dasharray:3;}#d48cf444540759c8f .edge-pattern-dotted{stroke-dasharray:2;}#d48cf444540759c8f .marker{fill:#7C7361;stroke:#7C7361;}#d48cf444540759c8f .marker.cross{stroke:#7C7361;}#d48cf444540759c8f svg{font-family:system-ui,-apple-system,"Segoe UI",Roboto,sans-serif;font-size:13px;}#d48cf444540759c8f p{margin:0;}#d48cf444540759c8f .label{font-family:system-ui,-apple-system,"Segoe UI",Roboto,sans-serif;color:#EDE6D7;}#d48cf444540759c8f .cluster-label text{fill:#EDE6D7;}#d48cf444540759c8f .cluster-label span{color:#EDE6D7;}#d48cf444540759c8f .cluster-label span p{background-color:transparent;}#d48cf444540759c8f .label text,#d48cf444540759c8f span{fill:#EDE6D7;color:#EDE6D7;}#d48cf444540759c8f .node rect,#d48cf444540759c8f .node circle,#d48cf444540759c8f .node ellipse,#d48cf444540759c8f .node polygon,#d48cf444540759c8f .node path{fill:#2C2820;stroke:#4C4739;stroke-width:1px;}#d48cf444540759c8f .rough-node .label text,#d48cf444540759c8f .node .label text,#d48cf444540759c8f .image-shape .label,#d48cf444540759c8f .icon-shape .label{text-anchor:middle;}#d48cf444540759c8f .node .katex path{fill:#000;stroke:#000;stroke-width:1px;}#d48cf444540759c8f .rough-node .label,#d48cf444540759c8f .node .label,#d48cf444540759c8f .image-shape .label,#d48cf444540759c8f .icon-shape .label{text-align:center;}#d48cf444540759c8f .node.clickable{cursor:pointer;}#d48cf444540759c8f .root .anchor path{fill:#7C7361!important;stroke-width:0;stroke:#7C7361;}#d48cf444540759c8f .arrowheadPath{fill:#e4e5e8;}#d48cf444540759c8f .edgePaths .path{stroke:#7C7361;stroke-width:1px;}#d48cf444540759c8f .flowchart-link{stroke:#7C7361;fill:none;}#d48cf444540759c8f .edgeLabel{background-color:#1B1A17;text-align:center;}#d48cf444540759c8f .edgeLabel p{background-color:#1B1A17;}#d48cf444540759c8f .edgeLabel rect{opacity:0.5;background-color:#1B1A17;fill:#1B1A17;}#d48cf444540759c8f .labelBkg{background-color:rgba(27, 26, 23, 0.5);}#d48cf444540759c8f .cluster rect{fill:#16140F;stroke:#37332B;stroke-width:1px;}#d48cf444540759c8f .cluster text{fill:#EDE6D7;}#d48cf444540759c8f .cluster span{color:#EDE6D7;}#d48cf444540759c8f .node .collapsed-indicator{fill:#37332B;stroke:none;opacity:0.6;}#d48cf444540759c8f .node .collapsed-separator{stroke:#37332B;stroke-width:0.75px;}#d48cf444540759c8f div.mermaidTooltip{position:absolute;text-align:center;max-width:200px;padding:2px;font-family:system-ui,-apple-system,"Segoe UI",Roboto,sans-serif;font-size:12px;background:#16140F;border:1px solid #37332B;border-radius:2px;pointer-events:none;z-index:100;}#d48cf444540759c8f .flowchartTitleText{text-anchor:middle;font-size:18px;fill:#EDE6D7;}#d48cf444540759c8f rect.text{fill:none;stroke-width:0;}#d48cf444540759c8f .icon-shape,#d48cf444540759c8f .image-shape{background-color:#1B1A17;text-align:center;}#d48cf444540759c8f .icon-shape p,#d48cf444540759c8f .image-shape p{background-color:#1B1A17;padding:2px;}#d48cf444540759c8f .icon-shape .label rect,#d48cf444540759c8f .image-shape .label rect{opacity:0.5;background-color:#1B1A17;fill:#1B1A17;}#d48cf444540759c8f .label-icon{display:inline-block;height:1em;overflow:visible;vertical-align:-0.125em;}#d48cf444540759c8f .node .label-icon path{fill:currentColor;stroke:revert;stroke-width:revert;}#d48cf444540759c8f .node .neo-node{stroke:#4C4739;}#d48cf444540759c8f [data-look="neo"].node rect,#d48cf444540759c8f [data-look="neo"].cluster rect,#d48cf444540759c8f [data-look="neo"].node polygon{stroke:url(#d48cf444540759c8f-gradient);filter:drop-shadow( 1px 2px 2px rgba(185,185,185,1));}#d48cf444540759c8f [data-look="neo"].swimlane.cluster rect{filter:none;}#d48cf444540759c8f [data-look="neo"].node path{stroke:url(#d48cf444540759c8f-gradient);stroke-width:1px;}#d48cf444540759c8f [data-look="neo"].node .outer-path{filter:drop-shadow( 1px 2px 2px rgba(185,185,185,1));}#d48cf444540759c8f [data-look="neo"].node .neo-line path{stroke:#4C4739;filter:none;}#d48cf444540759c8f [data-look="neo"].node circle{stroke:url(#d48cf444540759c8f-gradient);filter:drop-shadow( 1px 2px 2px rgba(185,185,185,1));}#d48cf444540759c8f [data-look="neo"].node circle .state-start{fill:#000000;}#d48cf444540759c8f [data-look="neo"].icon-shape .icon{fill:url(#d48cf444540759c8f-gradient);filter:drop-shadow( 1px 2px 2px rgba(185,185,185,1));}#d48cf444540759c8f [data-look="neo"].icon-shape .icon-neo path{stroke:url(#d48cf444540759c8f-gradient);filter:drop-shadow( 1px 2px 2px rgba(185,185,185,1));}#d48cf444540759c8f :root{--mermaid-font-family:"trebuchet ms",verdana,arial,sans-serif;}#d48cf444540759c8f .k>*{fill:rgb(30, 48, 37)!important;stroke:rgb(79, 160, 115)!important;color:rgb(237, 230, 215)!important;}#d48cf444540759c8f .k span{fill:rgb(30, 48, 37)!important;stroke:rgb(79, 160, 115)!important;color:rgb(237, 230, 215)!important;}#d48cf444540759c8f .k tspan{fill:rgb(237, 230, 215)!important;}</style><g><marker id="d48cf444540759c8f_flowchart-v2-pointEnd" class="marker flowchart-v2" viewBox="0 0 10 10" refX="5" refY="5" markerUnits="userSpaceOnUse" markerWidth="8" markerHeight="8" orient="auto"><path d="M 0 0 L 10 5 L 0 10 z" class="arrowMarkerPath" style="stroke-width: 1; stroke-dasharray: 1, 0;"></path></marker><marker id="d48cf444540759c8f_flowchart-v2-pointStart" class="marker flowchart-v2" viewBox="0 0 10 10" refX="4.5" refY="5" markerUnits="userSpaceOnUse" markerWidth="8" markerHeight="8" orient="auto"><path d="M 0 5 L 10 10 L 10 0 z" class="arrowMarkerPath" style="stroke-width: 1; stroke-dasharray: 1, 0;"></path></marker><marker id="d48cf444540759c8f_flowchart-v2-pointEnd-margin" class="marker flowchart-v2" viewBox="0 0 11.5 14" refX="11.5" refY="7" markerUnits="userSpaceOnUse" markerWidth="10.5" markerHeight="14" orient="auto"><path d="M 0 0 L 11.5 7 L 0 14 z" class="arrowMarkerPath" style="stroke-width: 0; stroke-dasharray: 1, 0;"></path></marker><marker id="d48cf444540759c8f_flowchart-v2-pointStart-margin" class="marker flowchart-v2" viewBox="0 0 11.5 14" refX="1" refY="7" markerUnits="userSpaceOnUse" markerWidth="11.5" markerHeight="14" orient="auto"><polygon points="0,7 11.5,14 11.5,0" class="arrowMarkerPath" style="stroke-width: 0; stroke-dasharray: 1, 0;"></polygon></marker><marker id="d48cf444540759c8f_flowchart-v2-circleEnd" class="marker flowchart-v2" viewBox="0 0 10 10" refX="11" refY="5" markerUnits="userSpaceOnUse" markerWidth="11" markerHeight="11" orient="auto"><circle cx="5" cy="5" r="5" class="arrowMarkerPath" style="stroke-width: 1; stroke-dasharray: 1, 0;"></circle></marker><marker id="d48cf444540759c8f_flowchart-v2-circleStart" class="marker flowchart-v2" viewBox="0 0 10 10" refX="-1" refY="5" markerUnits="userSpaceOnUse" markerWidth="11" markerHeight="11" orient="auto"><circle cx="5" cy="5" r="5" class="arrowMarkerPath" style="stroke-width: 1; stroke-dasharray: 1, 0;"></circle></marker><marker id="d48cf444540759c8f_flowchart-v2-circleEnd-margin" class="marker flowchart-v2" viewBox="0 0 10 10" refY="5" refX="12.25" markerUnits="userSpaceOnUse" markerWidth="14" markerHeight="14" orient="auto"><circle cx="5" cy="5" r="5" class="arrowMarkerPath" style="stroke-width: 0; stroke-dasharray: 1, 0;"></circle></marker><marker id="d48cf444540759c8f_flowchart-v2-circleStart-margin" class="marker flowchart-v2" viewBox="0 0 10 10" refX="-2" refY="5" markerUnits="userSpaceOnUse" markerWidth="14" markerHeight="14" orient="auto"><circle cx="5" cy="5" r="5" class="arrowMarkerPath" style="stroke-width: 0; stroke-dasharray: 1, 0;"></circle></marker><marker id="d48cf444540759c8f_flowchart-v2-crossEnd" class="marker cross flowchart-v2" viewBox="0 0 11 11" refX="12" refY="5.2" markerUnits="userSpaceOnUse" markerWidth="11" markerHeight="11" orient="auto"><path d="M 1,1 l 9,9 M 10,1 l -9,9" class="arrowMarkerPath" style="stroke-width: 2; stroke-dasharray: 1, 0;"></path></marker><marker id="d48cf444540759c8f_flowchart-v2-crossStart" class="marker cross flowchart-v2" viewBox="0 0 11 11" refX="-1" refY="5.2" markerUnits="userSpaceOnUse" markerWidth="11" markerHeight="11" orient="auto"><path d="M 1,1 l 9,9 M 10,1 l -9,9" class="arrowMarkerPath" style="stroke-width: 2; stroke-dasharray: 1, 0;"></path></marker><marker id="d48cf444540759c8f_flowchart-v2-crossEnd-margin" class="marker cross flowchart-v2" viewBox="0 0 15 15" refX="17.7" refY="7.5" markerUnits="userSpaceOnUse" markerWidth="12" markerHeight="12" orient="auto"><path d="M 1,1 L 14,14 M 1,14 L 14,1" class="arrowMarkerPath" style="stroke-width: 2.5;"></path></marker><marker id="d48cf444540759c8f_flowchart-v2-crossStart-margin" class="marker cross flowchart-v2" viewBox="0 0 15 15" refX="-3.5" refY="7.5" markerUnits="userSpaceOnUse" markerWidth="12" markerHeight="12" orient="auto"><path d="M 1,1 L 14,14 M 1,14 L 14,1" class="arrowMarkerPath" style="stroke-width: 2.5; stroke-dasharray: 1, 0;"></path></marker><g class="root"><g class="clusters"></g><g class="edgePaths"><path d="M242.004,106L242.004,121L242.004,132" id="d48cf444540759c8f-L_P_ML_0" class=" edge-thickness-normal edge-pattern-solid edge-thickness-normal edge-pattern-solid flowchart-link" style=";" data-edge="true" data-et="edge" data-id="L_P_ML_0" data-points="W3sieCI6MjQyLjAwMzkwNjI1LCJ5IjoxMDZ9LHsieCI6MjQyLjAwMzkwNjI1LCJ5IjoxMjF9LHsieCI6MjQyLjAwMzkwNjI1LCJ5IjoxMzZ9XQ==" data-look="classic" marker-end="url(#d48cf444540759c8f_flowchart-v2-pointEnd)"></path><path d="M242.004,234L242.004,249L242.004,260" id="d48cf444540759c8f-L_ML_CF_0" class=" edge-thickness-normal edge-pattern-solid edge-thickness-normal edge-pattern-solid flowchart-link" style=";" data-edge="true" data-et="edge" data-id="L_ML_CF_0" data-points="W3sieCI6MjQyLjAwMzkwNjI1LCJ5IjoyMzR9LHsieCI6MjQyLjAwMzkwNjI1LCJ5IjoyNDl9LHsieCI6MjQyLjAwMzkwNjI1LCJ5IjoyNjR9XQ==" data-look="classic" marker-end="url(#d48cf444540759c8f_flowchart-v2-pointEnd)"></path><path d="M242.004,342.5L242.004,357.5L242.004,368.5" id="d48cf444540759c8f-L_CF_DR_0" class=" edge-thickness-normal edge-pattern-solid edge-thickness-normal edge-pattern-solid flowchart-link" style=";" data-edge="true" data-et="edge" data-id="L_CF_DR_0" data-points="W3sieCI6MjQyLjAwMzkwNjI1LCJ5IjozNDIuNX0seyJ4IjoyNDIuMDAzOTA2MjUsInkiOjM1Ny41fSx7IngiOjI0Mi4wMDM5MDYyNSwieSI6MzcyLjV9XQ==" data-look="classic" marker-end="url(#d48cf444540759c8f_flowchart-v2-pointEnd)"></path><path d="M242.004,451L242.004,466L242.004,477" id="d48cf444540759c8f-L_DR_DML_0" class=" edge-thickness-normal edge-pattern-solid edge-thickness-normal edge-pattern-solid flowchart-link" style=";" data-edge="true" data-et="edge" data-id="L_DR_DML_0" data-points="W3sieCI6MjQyLjAwMzkwNjI1LCJ5Ijo0NTF9LHsieCI6MjQyLjAwMzkwNjI1LCJ5Ijo0NjZ9LHsieCI6MjQyLjAwMzkwNjI1LCJ5Ijo0ODF9XQ==" data-look="classic" marker-end="url(#d48cf444540759c8f_flowchart-v2-pointEnd)"></path><path d="M142.799,579L112.43,594L112.43,605" id="d48cf444540759c8f-L_DML_RL_0" class=" edge-thickness-normal edge-pattern-solid edge-thickness-normal edge-pattern-solid flowchart-link" style=";" data-edge="true" data-et="edge" data-id="L_DML_RL_0" data-points="W3sieCI6MTQyLjc5ODY0NTAxOTUzMTI1LCJ5Ijo1Nzl9LHsieCI6MTEyLjQyOTY4NzUsInkiOjU5NH0seyJ4IjoxMTIuNDI5Njg3NSwieSI6NjA5fV0=" data-look="classic" marker-end="url(#d48cf444540759c8f_flowchart-v2-pointEnd)"></path><path d="M341.209,579L371.578,594L371.578,605" id="d48cf444540759c8f-L_DML_DRL_0" class=" edge-thickness-normal edge-pattern-solid edge-thickness-normal edge-pattern-solid flowchart-link" style=";" data-edge="true" data-et="edge" data-id="L_DML_DRL_0" data-points="W3sieCI6MzQxLjIwOTE2NzQ4MDQ2ODc1LCJ5Ijo1Nzl9LHsieCI6MzcxLjU3ODEyNSwieSI6NTk0fSx7IngiOjM3MS41NzgxMjUsInkiOjYwOX1d" data-look="classic" marker-end="url(#d48cf444540759c8f_flowchart-v2-pointEnd)"></path><path d="M112.43,668L112.43,683L148.665,697.054" id="d48cf444540759c8f-L_RL_ALL_0" class=" edge-thickness-normal edge-pattern-solid edge-thickness-normal edge-pattern-solid flowchart-link" style=";" data-edge="true" data-et="edge" data-id="L_RL_ALL_0" data-points="W3sieCI6MTEyLjQyOTY4NzUsInkiOjY2OH0seyJ4IjoxMTIuNDI5Njg3NSwieSI6NjgzfSx7IngiOjE1Mi4zOTM5MTY1NjA5MTQwOCwieSI6Njk4LjUwMDAwMDAwMDAwMDF9XQ==" data-look="classic" marker-end="url(#d48cf444540759c8f_flowchart-v2-pointEnd)"></path><path d="M371.578,668L371.578,683L336.331,697.021" id="d48cf444540759c8f-L_DRL_ALL_0" class=" edge-thickness-normal edge-pattern-solid edge-thickness-normal edge-pattern-solid flowchart-link" style=";" data-edge="true" data-et="edge" data-id="L_DRL_ALL_0" data-points="W3sieCI6MzcxLjU3ODEyNSwieSI6NjY4fSx7IngiOjM3MS41NzgxMjUsInkiOjY4M30seyJ4IjozMzIuNjEzODk1OTM5MDg2LCJ5Ijo2OTguNTAwMDAwMDAwMDAwMX1d" data-look="classic" marker-end="url(#d48cf444540759c8f_flowchart-v2-pointEnd)"></path></g><g class="edgeLabels"><g class="edgeLabel"><g class="label" data-id="L_P_ML_0" transform="translate(0, 0)"><foreignObject width="0" height="0"><div xmlns="http://www.w3.org/1999/xhtml" class="labelBkg" style="display: table-cell; white-space: nowrap; line-height: 1.5; max-width: 200px; text-align: center;"><span class="edgeLabel "></span></div></foreignObject></g></g><g class="edgeLabel"><g class="label" data-id="L_ML_CF_0" transform="translate(0, 0)"><foreignObject width="0" height="0"><div xmlns="http://www.w3.org/1999/xhtml" class="labelBkg" style="display: table-cell; white-space: nowrap; line-height: 1.5; max-width: 200px; text-align: center;"><span class="edgeLabel "></span></div></foreignObject></g></g><g class="edgeLabel"><g class="label" data-id="L_CF_DR_0" transform="translate(0, 0)"><foreignObject width="0" height="0"><div xmlns="http://www.w3.org/1999/xhtml" class="labelBkg" style="display: table-cell; white-space: nowrap; line-height: 1.5; max-width: 200px; text-align: center;"><span class="edgeLabel "></span></div></foreignObject></g></g><g class="edgeLabel"><g class="label" data-id="L_DR_DML_0" transform="translate(0, 0)"><foreignObject width="0" height="0"><div xmlns="http://www.w3.org/1999/xhtml" class="labelBkg" style="display: table-cell; white-space: nowrap; line-height: 1.5; max-width: 200px; text-align: center;"><span class="edgeLabel "></span></div></foreignObject></g></g><g class="edgeLabel"><g class="label" data-id="L_DML_RL_0" transform="translate(0, 0)"><foreignObject width="0" height="0"><div xmlns="http://www.w3.org/1999/xhtml" class="labelBkg" style="display: table-cell; white-space: nowrap; line-height: 1.5; max-width: 200px; text-align: center;"><span class="edgeLabel "></span></div></foreignObject></g></g><g class="edgeLabel"><g class="label" data-id="L_DML_DRL_0" transform="translate(0, 0)"><foreignObject width="0" height="0"><div xmlns="http://www.w3.org/1999/xhtml" class="labelBkg" style="display: table-cell; white-space: nowrap; line-height: 1.5; max-width: 200px; text-align: center;"><span class="edgeLabel "></span></div></foreignObject></g></g><g class="edgeLabel"><g class="label" data-id="L_RL_ALL_0" transform="translate(0, 0)"><foreignObject width="0" height="0"><div xmlns="http://www.w3.org/1999/xhtml" class="labelBkg" style="display: table-cell; white-space: nowrap; line-height: 1.5; max-width: 200px; text-align: center;"><span class="edgeLabel "></span></div></foreignObject></g></g><g class="edgeLabel"><g class="label" data-id="L_DRL_ALL_0" transform="translate(0, 0)"><foreignObject width="0" height="0"><div xmlns="http://www.w3.org/1999/xhtml" class="labelBkg" style="display: table-cell; white-space: nowrap; line-height: 1.5; max-width: 200px; text-align: center;"><span class="edgeLabel "></span></div></foreignObject></g></g></g><g class="nodes"><g class="node default  " id="d48cf444540759c8f-flowchart-P-0" data-look="classic" transform="translate(242.00390625, 57)"><rect class="basic label-container" style="" x="-150" y="-49" width="300" height="98"></rect><g class="label" style="" transform="translate(-130, -39)"><rect></rect><foreignObject width="260" height="78"><div xmlns="http://www.w3.org/1999/xhtml" style="display: table; white-space: break-spaces; line-height: 1.5; max-width: 260px; text-align: center; width: 260px;"><span class="nodeLabel "><p><b>The causal-ML method landscape</b><br/><small>high-dimensional observational data → heterogeneous treatment effects · goal: estimate τ(x) without regularization bias</small></p></span></div></foreignObject></g></g><g class="node default  " id="d48cf444540759c8f-flowchart-ML-2" data-look="classic" transform="translate(242.00390625, 185)"><rect class="basic label-container" style="" x="-150" y="-49" width="300" height="98"></rect><g class="label" style="" transform="translate(-130, -39)"><rect></rect><foreignObject width="260" height="78"><div xmlns="http://www.w3.org/1999/xhtml" style="display: table; white-space: break-spaces; line-height: 1.5; max-width: 260px; text-align: center; width: 260px;"><span class="nodeLabel "><p><b>Meta-learners</b> · §3<br/><small>S: one model (regularization bias) · T: two models (no sharing) · X: four stages (propensity-weighted blending)</small></p></span></div></foreignObject></g></g><g class="node default  " id="d48cf444540759c8f-flowchart-CF-4" data-look="classic" transform="translate(242.00390625, 303.25)"><rect class="basic label-container" style="" x="-150" y="-39.25" width="300" height="78.5"></rect><g class="label" style="" transform="translate(-130, -29.25)"><rect></rect><foreignObject width="260" height="58.5"><div xmlns="http://www.w3.org/1999/xhtml" style="display: table; white-space: break-spaces; line-height: 1.5; max-width: 260px; text-align: center; width: 260px;"><span class="nodeLabel "><p><b>Causal trees / forests</b> · §4<br/><small>honest estimation → unbiased + valid CIs · ensemble → low variance · interpretable</small></p></span></div></foreignObject></g></g><g class="node default  " id="d48cf444540759c8f-flowchart-DR-6" data-look="classic" transform="translate(242.00390625, 411.75)"><rect class="basic label-container" style="" x="-150" y="-39.25" width="300" height="78.5"></rect><g class="label" style="" transform="translate(-130, -29.25)"><rect></rect><foreignObject width="260" height="58.5"><div xmlns="http://www.w3.org/1999/xhtml" style="display: table; white-space: break-spaces; line-height: 1.5; max-width: 260px; text-align: center; width: 260px;"><span class="nodeLabel "><p><b>Deep representation</b> · §5<br/><small>TarNet: implicit balance · CFRNet: explicit IPM (distributional balance)</small></p></span></div></foreignObject></g></g><g class="node default k " id="d48cf444540759c8f-flowchart-DML-8" data-look="classic" transform="translate(242.00390625, 530)"><rect class="basic label-container" style="fill:#1E3025 !important;stroke:#4FA073 !important" x="-150" y="-49" width="300" height="98"></rect><g class="label" style="color:#EDE6D7 !important" transform="translate(-130, -39)"><rect></rect><foreignObject width="260" height="78"><div style="color: rgb(237, 230, 215) !important; display: table; white-space: break-spaces; line-height: 1.5; max-width: 260px; text-align: center; width: 260px;" xmlns="http://www.w3.org/1999/xhtml"><span style="color:#EDE6D7 !important" class="nodeLabel "><p><b>DML framework</b> · §6–8<br/><small>partialing out (remove confounders) · Neyman orthogonality (bias → O(δ²)) · cross-fitting (prevent overfitting)</small></p></span></div></foreignObject></g></g><g class="node default  " id="d48cf444540759c8f-flowchart-RL-10" data-look="classic" transform="translate(112.4296875, 638.5)"><rect class="basic label-container" style="" x="-104.4296875" y="-29.5" width="208.859375" height="59"></rect><g class="label" style="" transform="translate(-84.4296875, -19.5)"><rect></rect><foreignObject width="168.859375" height="39"><div xmlns="http://www.w3.org/1999/xhtml" style="display: table-cell; white-space: nowrap; line-height: 1.5; max-width: 260px; text-align: center;"><span class="nodeLabel "><p><b>R-Learner</b><br/><small>DML + CATE via residual regression</small></p></span></div></foreignObject></g></g><g class="node default  " id="d48cf444540759c8f-flowchart-DRL-12" data-look="classic" transform="translate(371.578125, 638.5)"><rect class="basic label-container" style="" x="-124.71875" y="-29.5" width="249.4375" height="59"></rect><g class="label" style="" transform="translate(-104.71875, -19.5)"><rect></rect><foreignObject width="209.4375" height="39"><div xmlns="http://www.w3.org/1999/xhtml" style="display: table-cell; white-space: nowrap; line-height: 1.5; max-width: 260px; text-align: center;"><span class="nodeLabel "><p><b>DR-Learner</b><br/><small>AIPW + DML + meta-learner, double robust</small></p></span></div></foreignObject></g></g><g class="node default k " id="d48cf444540759c8f-flowchart-ALL-15" data-look="classic" transform="translate(242.00390625, 732.25)"><g class="basic label-container outer-path"><path d="M-109.3125 -34.25 C-22.82274936023866 -34.25, 63.66700127952268 -34.25, 109.3125 -34.25 C109.3125 -34.25, 109.3125 -34.25, 109.3125 -34.25 C109.83142442912296 -34.233359103583155, 110.35034885824591 -34.21671820716631, 111.50690503433941 -34.17962970169902 C112.11702777360011 -34.12077189482249, 112.7271505128608 -34.061914087945965, 113.69229278769433 -33.96880797344618 C114.19458916347479 -33.88760059077657, 114.69688553925525 -33.806393208106954, 115.859683033022 -33.61840112694399 C116.42021798091476 -33.49046268291985, 116.98075292880753 -33.362524238895695, 118.00016949890062 -33.12984905908676 C118.53284249313475 -32.971754510455675, 119.06551548736888 -32.81365996182459, 120.10495646730901 -32.5051593351154 C120.86374531327755 -32.22591802563178, 121.62253415924609 -31.946676716148154, 122.16539491711856 -31.746898939101246 C122.75300941099238 -31.486779433627945, 123.3406239048662 -31.22665992815464, 124.17301806477636 -30.858183725657856 C124.5818447400401 -30.644899111038743, 124.99067141530385 -30.43161449641963, 126.11957615613485 -29.842665616226093 C126.7827018456901 -29.440674926258595, 127.44582753524536 -29.038684236291097, 127.99707036646129 -28.704517592545546 C128.46459338544958 -28.378393773244625, 128.93211640443786 -28.0522699539437, 129.79778566932416 -27.448416548977516 C130.30920084156128 -27.040576558447707, 130.82061601379837 -26.6327365679179, 131.51432253929175 -26.079524074142856 C132.04081497349443 -25.60137757562643, 132.56730740769714 -25.123231077110002, 133.1396273581694 -24.60346524084717 C133.5081573139249 -24.222927804657544, 133.87668726968042 -23.84239036846792, 134.66702139982954 -23.026305491450106 C135.08913299085071 -22.53046919780669, 135.5112445818719 -22.03463290416327, 136.09022827453003 -21.354525713661626 C136.43636999164735 -20.890727346883555, 136.78251170876467 -20.426928980105483, 137.40339971994572 -19.59499560918432 C137.82972644102378 -18.94004328085444, 138.25605316210184 -18.285090952524563, 138.6011396329331 -17.754945464635487 C138.95380895873367 -17.12874536503491, 139.30647828453422 -16.502545265434332, 139.67852624327526 -15.841936440748608 C139.9825848080251 -15.21055232523446, 140.28664337277496 -14.57916820972031, 140.63113233829156 -13.863829501941996 C140.90813871441702 -13.179618397358228, 141.18514509054245 -12.495407292774459, 141.4550434552043 -11.828753113929803 C141.61403626987237 -11.34989208821438, 141.77302908454047 -10.871031062498957, 142.1468739665056 -9.745069842112871 C142.30670575262135 -9.135561970119202, 142.46653753873713 -8.526054098125535, 142.70378099222745 -7.621341988003771 C142.82896670735948 -6.978539798811046, 142.95415242249152 -6.335737609618321, 143.12347608194491 -5.466296404893251 C143.23565328635195 -4.596272159406868, 143.34783049075898 -3.726247913920485, 143.40423461851003 -3.2887886373381066 C143.45722218417413 -2.463464531326557, 143.51020974983825 -1.6381404253150074, 143.54490290487357 -1.0977665318291894 C143.54490290487357 -0.32603473179139486, 143.54490290487357 0.44569706824639965, 143.54490290487357 1.0977665318291812 C143.5154031063406 1.5572497057885029, 143.4859033078077 2.0167328797478246, 143.40423461851003 3.288788637338083 C143.30715462893835 4.041721865843811, 143.21007463936667 4.794655094349539, 143.12347608194491 5.466296404893227 C142.96447082966574 6.282754769574755, 142.8054655773866 7.099213134256283, 142.70378099222745 7.621341988003764 C142.56975417055074 8.132444346649082, 142.435727348874 8.643546705294401, 142.14687396650564 9.745069842112848 C141.91101201254745 10.455448467935991, 141.67515005858922 11.165827093759136, 141.4550434552043 11.82875311392978 C141.25509646012557 12.322626057486394, 141.05514946504687 12.816499001043008, 140.6311323382916 13.863829501941987 C140.29963866301594 14.552183211480301, 139.96814498774026 15.240536921018613, 139.67852624327526 15.8419364407486 C139.27378986540532 16.560586863659086, 138.86905348753538 17.279237286569575, 138.6011396329331 17.75494546463548 C138.34650883408798 18.146126749604882, 138.09187803524287 18.537308034574284, 137.40339971994575 19.5949956091843 C137.10629857100133 19.99308408229834, 136.8091974220569 20.39117255541238, 136.09022827453003 21.35452571366162 C135.56810898820675 21.967836736805985, 135.04598970188343 22.58114775995035, 134.66702139982957 23.02630549145009 C134.26943779676316 23.43684320383703, 133.87185419369675 23.847380916223972, 133.1396273581694 24.603465240847164 C132.6200226181645 25.075356517731567, 132.10041787815962 25.54724779461597, 131.51432253929178 26.079524074142835 C130.98583473652326 26.50097903319966, 130.45734693375476 26.922433992256483, 129.79778566932416 27.44841654897751 C129.2454898280197 27.83367421936985, 128.6931939867153 28.21893188976219, 127.99707036646132 28.704517592545532 C127.32876598913538 29.10964763347297, 126.66046161180944 29.514777674400406, 126.11957615613487 29.842665616226085 C125.64153374684267 30.09206003495305, 125.16349133755047 30.341454453680015, 124.17301806477637 30.858183725657852 C123.76361679696177 31.039413522462258, 123.35421552914717 31.220643319266664, 122.16539491711858 31.74689893910124 C121.42165510111342 32.020602066446635, 120.67791528510826 32.29430519379203, 120.10495646730902 32.505159335115394 C119.31219631998253 32.74044638555897, 118.51943617265606 32.97573343600254, 118.00016949890066 33.12984905908675 C117.23056621783148 33.30550598586004, 116.46096293676231 33.48116291263332, 115.85968303302201 33.618401126943986 C114.99645734076418 33.75796076245301, 114.13323164850635 33.897520397962026, 113.69229278769436 33.968807973446175 C113.24253436616945 34.01219562745704, 112.79277594464455 34.05558328146791, 111.50690503433941 34.17962970169902 C111.01365701975062 34.19544720547786, 110.52040900516184 34.21126470925671, 109.3125 34.25 C109.3125 34.25, 109.3125 34.25, 109.3125 34.25 C31.815700016783182 34.25, -45.681099966433635 34.25, -109.3125 34.25 C-109.77096175360475 34.23529802390357, -110.22942350720952 34.22059604780713, -111.5069050343394 34.17962970169902 C-112.28873500797594 34.10420750443041, -113.07056498161249 34.02878530716181, -113.69229278769434 33.968807973446175 C-114.31158043536173 33.86868634921875, -114.93086808302914 33.768564724991315, -115.859683033022 33.618401126943986 C-116.46091885131092 33.48117297484992, -117.06215466959986 33.343944822755844, -118.00016949890062 33.12984905908676 C-118.65164811487682 32.93649362554606, -119.30312673085304 32.74313819200536, -120.104956467309 32.50515933511541 C-120.92358783494107 32.203895424481395, -121.74221920257317 31.902631513847375, -122.16539491711856 31.746898939101246 C-122.56737275426198 31.568955274846726, -122.96935059140539 31.391011610592205, -124.17301806477636 30.85818372565786 C-124.66049561051129 30.603867002292212, -125.14797315624622 30.349550278926568, -126.11957615613485 29.842665616226096 C-126.49964576537178 29.612265185569733, -126.8797153746087 29.38186475491337, -127.99707036646127 28.704517592545557 C-128.58762760420822 28.29257042830407, -129.1781848419552 27.880623264062585, -129.79778566932413 27.44841654897752 C-130.36792906206568 26.99374236541901, -130.93807245480724 26.539068181860497, -131.51432253929175 26.07952407414286 C-131.92454520841352 25.70697069994352, -132.33476787753528 25.33441732574418, -133.13962735816938 24.603465240847186 C-133.58307630702714 24.145567793315752, -134.0265252558849 23.68767034578432, -134.66702139982957 23.0263054914501 C-135.1679504191534 22.43788576168361, -135.6688794384773 21.84946603191712, -136.09022827453 21.35452571366163 C-136.58883142550482 20.686442915036885, -137.08743457647964 20.01836011641214, -137.40339971994572 19.594995609184323 C-137.65384409457067 19.21024579602943, -137.9042884691956 18.825495982874536, -138.6011396329331 17.7549454646355 C-138.94493088108746 17.1445092908986, -139.28872212924182 16.5340731171617, -139.67852624327526 15.841936440748611 C-139.92911776302773 15.32157778818302, -140.1797092827802 14.80121913561743, -140.63113233829156 13.863829501942 C-140.83925946176544 13.34975148309736, -141.0473865852393 12.835673464252721, -141.4550434552043 11.828753113929807 C-141.64874779474917 11.245346505815903, -141.84245213429406 10.661939897702, -142.1468739665056 9.745069842112862 C-142.28782712308546 9.20755436658938, -142.42878027966532 8.670038891065897, -142.70378099222745 7.621341988003777 C-142.81363737749007 7.057252667835556, -142.92349376275266 6.493163347667335, -143.12347608194491 5.466296404893255 C-143.19891142992907 4.881234742322567, -143.2743467779132 4.29617307975188, -143.40423461851003 3.288788637338126 C-143.4535779696824 2.5202261135922335, -143.5029213208548 1.7516635898463413, -143.54490290487357 1.0977665318291936 C-143.54490290487357 0.22803664491449738, -143.54490290487357 -0.6416932420001988, -143.54490290487357 -1.0977665318291772 C-143.51005022446165 -1.640625161821914, -143.47519754404973 -2.183483791814651, -143.40423461851003 -3.288788637338079 C-143.34707700365382 -3.7320918111151573, -143.2899193887976 -4.175394984892235, -143.12347608194491 -5.466296404893239 C-142.95582727001738 -6.327137621552184, -142.78817845808985 -7.18797883821113, -142.70378099222745 -7.621341988003761 C-142.52227694928544 -8.313495568091518, -142.3407729063434 -9.005649148179277, -142.14687396650564 -9.745069842112844 C-141.87550622308348 -10.562386248722095, -141.60413847966134 -11.379702655331348, -141.4550434552043 -11.828753113929762 C-141.28486081243477 -12.249107531828082, -141.11467816966524 -12.669461949726402, -140.6311323382916 -13.863829501941984 C-140.3662905827831 -14.41377907396113, -140.10144882727462 -14.963728645980279, -139.67852624327526 -15.841936440748595 C-139.24919347752046 -16.604260241002994, -138.81986071176567 -17.36658404125739, -138.6011396329331 -17.75494546463549 C-138.32279467018628 -18.182558073502545, -138.04444970743947 -18.610170682369603, -137.40339971994575 -19.59499560918431 C-136.93098787121772 -20.227984448875066, -136.45857602248972 -20.860973288565827, -136.09022827453003 -21.35452571366162 C-135.7749771063533 -21.724837674101654, -135.45972593817655 -22.095149634541688, -134.66702139982957 -23.02630549145009 C-134.07281655907892 -23.63987077464985, -133.47861171832824 -24.253436057849616, -133.13962735816943 -24.60346524084715 C-132.78497052952264 -24.92555518891869, -132.43031370087584 -25.24764513699023, -131.51432253929178 -26.07952407414283 C-130.98363324700398 -26.502734662507187, -130.45294395471618 -26.925945250871543, -129.79778566932416 -27.448416548977505 C-129.37806336672443 -27.741196657785437, -128.9583410641247 -28.03397676659337, -127.99707036646132 -28.70451759254553 C-127.42100310013346 -29.0537329547405, -126.8449358338056 -29.402948316935472, -126.11957615613487 -29.842665616226082 C-125.72047317952745 -30.05087738348452, -125.32137020292002 -30.259089150742955, -124.17301806477637 -30.858183725657852 C-123.58140711532926 -31.12007234346281, -122.98979616588214 -31.381960961267765, -122.16539491711858 -31.746898939101236 C-121.67970717095946 -31.925636519336102, -121.19401942480035 -32.10437409957097, -120.10495646730904 -32.505159335115394 C-119.41145126882611 -32.710988037742055, -118.71794607034319 -32.91681674036871, -118.00016949890066 -33.129849059086744 C-117.4357841289584 -33.258666336817335, -116.87139875901616 -33.387483614547925, -115.85968303302201 -33.618401126943986 C-115.12343110629874 -33.737432628737636, -114.38717917957547 -33.856464130531286, -113.69229278769436 -33.968807973446175 C-113.15736669467944 -34.02041165029657, -112.62244060166451 -34.07201532714697, -111.50690503433943 -34.17962970169902 C-111.05816823517024 -34.19401981743518, -110.60943143600106 -34.208409933171346, -109.31250000000001 -34.25 C-109.31250000000001 -34.25, -109.3125 -34.25, -109.3125 -34.25" stroke="none" stroke-width="0" fill="#1E3025" style="fill:#1E3025 !important;stroke:#4FA073 !important"></path><path d="M-109.3125 -34.25 C-59.79801116550495 -34.25, -10.283522331009905 -34.25, 109.3125 -34.25 M-109.3125 -34.25 C-27.059874705122724 -34.25, 55.19275058975455 -34.25, 109.3125 -34.25 M109.3125 -34.25 C109.3125 -34.25, 109.3125 -34.25, 109.3125 -34.25 M109.3125 -34.25 C109.3125 -34.25, 109.3125 -34.25, 109.3125 -34.25 M109.3125 -34.25 C110.11957231855018 -34.22411876161507, 110.92664463710037 -34.198237523230134, 111.50690503433941 -34.17962970169902 M109.3125 -34.25 C109.82939211161296 -34.23342427605003, 110.34628422322594 -34.21684855210007, 111.50690503433941 -34.17962970169902 M111.50690503433941 -34.17962970169902 C111.94758309836008 -34.13711801885586, 112.38826116238074 -34.094606336012696, 113.69229278769433 -33.96880797344618 M111.50690503433941 -34.17962970169902 C112.03344469460515 -34.12883505392978, 112.55998435487089 -34.07804040616053, 113.69229278769433 -33.96880797344618 M113.69229278769433 -33.96880797344618 C114.40142352098243 -33.85416121587913, 115.11055425427055 -33.73951445831208, 115.859683033022 -33.61840112694399 M113.69229278769433 -33.96880797344618 C114.16279448667362 -33.89274090755038, 114.63329618565292 -33.81667384165458, 115.859683033022 -33.61840112694399 M115.859683033022 -33.61840112694399 C116.33203429466309 -33.510590033854456, 116.80438555630418 -33.402778940764925, 118.00016949890062 -33.12984905908676 M115.859683033022 -33.61840112694399 C116.43280941084369 -33.487588771205324, 117.00593578866538 -33.35677641546666, 118.00016949890062 -33.12984905908676 M118.00016949890062 -33.12984905908676 C118.56292343710066 -32.96282664418469, 119.12567737530071 -32.795804229282616, 120.10495646730901 -32.5051593351154 M118.00016949890062 -33.12984905908676 C118.75232466233342 -32.90661335472292, 119.50447982576623 -32.68337765035909, 120.10495646730901 -32.5051593351154 M120.10495646730901 -32.5051593351154 C120.63040374891241 -32.31178987830392, 121.15585103051582 -32.11842042149244, 122.16539491711856 -31.746898939101246 M120.10495646730901 -32.5051593351154 C120.73563826378084 -32.27306260405515, 121.36632006025268 -32.040965872994896, 122.16539491711856 -31.746898939101246 M122.16539491711856 -31.746898939101246 C122.61285723481366 -31.548820644555672, 123.06031955250876 -31.3507423500101, 124.17301806477636 -30.858183725657856 M122.16539491711856 -31.746898939101246 C122.69916930519658 -31.510612851353752, 123.23294369327459 -31.274326763606258, 124.17301806477636 -30.858183725657856 M124.17301806477636 -30.858183725657856 C124.92724975417846 -30.46470153640523, 125.68148144358057 -30.071219347152606, 126.11957615613485 -29.842665616226093 M124.17301806477636 -30.858183725657856 C124.76996019336507 -30.546759399532807, 125.36690232195379 -30.235335073407757, 126.11957615613485 -29.842665616226093 M126.11957615613485 -29.842665616226093 C126.74244588034873 -29.465078329018844, 127.36531560456261 -29.087491041811596, 127.99707036646129 -28.704517592545546 M126.11957615613485 -29.842665616226093 C126.64154064342073 -29.52624767662959, 127.16350513070661 -29.209829737033093, 127.99707036646129 -28.704517592545546 M127.99707036646129 -28.704517592545546 C128.61582105764992 -28.272903895658075, 129.23457174883856 -27.8412901987706, 129.79778566932416 -27.448416548977516 M127.99707036646129 -28.704517592545546 C128.6780736538589 -28.229479179414163, 129.35907694125646 -27.754440766282784, 129.79778566932416 -27.448416548977516 M129.79778566932416 -27.448416548977516 C130.28691263915744 -27.058350806750784, 130.77603960899071 -26.66828506452405, 131.51432253929175 -26.079524074142856 M129.79778566932416 -27.448416548977516 C130.42075155839422 -26.951617830262666, 131.0437174474643 -26.454819111547817, 131.51432253929175 -26.079524074142856 M131.51432253929175 -26.079524074142856 C131.96319308344678 -25.671871722405058, 132.41206362760178 -25.26421937066726, 133.1396273581694 -24.60346524084717 M131.51432253929175 -26.079524074142856 C132.02946791621687 -25.611682672819242, 132.54461329314196 -25.143841271495628, 133.1396273581694 -24.60346524084717 M133.1396273581694 -24.60346524084717 C133.73542444647546 -23.988255831320497, 134.33122153478152 -23.373046421793823, 134.66702139982954 -23.026305491450106 M133.1396273581694 -24.60346524084717 C133.61007046925224 -24.11769410455641, 134.08051358033507 -23.63192296826565, 134.66702139982954 -23.026305491450106 M134.66702139982954 -23.026305491450106 C135.20711596880685 -22.391879678477782, 135.74721053778418 -21.757453865505457, 136.09022827453003 -21.354525713661626 M134.66702139982954 -23.026305491450106 C135.17763466802293 -22.426510091912117, 135.68824793621633 -21.826714692374125, 136.09022827453003 -21.354525713661626 M136.09022827453003 -21.354525713661626 C136.40003883080246 -20.939407792578887, 136.70984938707485 -20.524289871496148, 137.40339971994572 -19.59499560918432 M136.09022827453003 -21.354525713661626 C136.604815246655 -20.66502605085175, 137.11940221877992 -19.975526388041875, 137.40339971994572 -19.59499560918432 M137.40339971994572 -19.59499560918432 C137.8715424675561 -18.875802634925403, 138.33968521516653 -18.156609660666486, 138.6011396329331 -17.754945464635487 M137.40339971994572 -19.59499560918432 C137.64443054437683 -19.224707537019288, 137.88546136880797 -18.85441946485426, 138.6011396329331 -17.754945464635487 M138.6011396329331 -17.754945464635487 C138.99218392891274 -17.060606719594883, 139.38322822489235 -16.36626797455428, 139.67852624327526 -15.841936440748608 M138.6011396329331 -17.754945464635487 C138.90333613024382 -17.21836498294672, 139.20553262755453 -16.681784501257955, 139.67852624327526 -15.841936440748608 M139.67852624327526 -15.841936440748608 C139.9082557720537 -15.364898158815652, 140.13798530083218 -14.887859876882697, 140.63113233829156 -13.863829501941996 M139.67852624327526 -15.841936440748608 C139.93764434017075 -15.303872168306025, 140.1967624370662 -14.765807895863444, 140.63113233829156 -13.863829501941996 M140.63113233829156 -13.863829501941996 C140.90049488875144 -13.198498794535476, 141.16985743921134 -12.533168087128956, 141.4550434552043 -11.828753113929803 M140.63113233829156 -13.863829501941996 C140.79975489107343 -13.447328536475501, 140.9683774438553 -13.030827571009006, 141.4550434552043 -11.828753113929803 M141.4550434552043 -11.828753113929803 C141.63289959527276 -11.293078757571203, 141.81075573534122 -10.757404401212604, 142.1468739665056 -9.745069842112871 M141.4550434552043 -11.828753113929803 C141.69293692962736 -11.112255872145303, 141.93083040405043 -10.395758630360802, 142.1468739665056 -9.745069842112871 M142.1468739665056 -9.745069842112871 C142.34869672392344 -8.975432197542357, 142.55051948134124 -8.205794552971843, 142.70378099222745 -7.621341988003771 M142.1468739665056 -9.745069842112871 C142.26704518192463 -9.286804915185938, 142.38721639734365 -8.828539988259003, 142.70378099222745 -7.621341988003771 M142.70378099222745 -7.621341988003771 C142.8177816691509 -7.035972606053502, 142.93178234607433 -6.450603224103232, 143.12347608194491 -5.466296404893251 M142.70378099222745 -7.621341988003771 C142.84034490315653 -6.920115168175757, 142.97690881408562 -6.2188883483477415, 143.12347608194491 -5.466296404893251 M143.12347608194491 -5.466296404893251 C143.22663898051246 -4.666185335421939, 143.32980187907998 -3.866074265950626, 143.40423461851003 -3.2887886373381066 M143.12347608194491 -5.466296404893251 C143.19196111266504 -4.935140030526888, 143.26044614338517 -4.403983656160526, 143.40423461851003 -3.2887886373381066 M143.40423461851003 -3.2887886373381066 C143.45525458397663 -2.4941114926209558, 143.50627454944325 -1.6994343479038054, 143.54490290487357 -1.0977665318291894 M143.40423461851003 -3.2887886373381066 C143.45463731438562 -2.5037259647522365, 143.50504001026118 -1.718663292166366, 143.54490290487357 -1.0977665318291894 M143.54490290487357 -1.0977665318291894 C143.54490290487357 -0.2431383027306102, 143.54490290487357 0.611489926367969, 143.54490290487357 1.0977665318291812 M143.54490290487357 -1.0977665318291894 C143.54490290487357 -0.5211093672005747, 143.54490290487357 0.05554779742804006, 143.54490290487357 1.0977665318291812 M143.54490290487357 1.0977665318291812 C143.50723769341383 1.684432603125879, 143.46957248195412 2.2710986744225767, 143.40423461851003 3.288788637338083 M143.54490290487357 1.0977665318291812 C143.50923193150138 1.6533707351923645, 143.47356095812918 2.2089749385555484, 143.40423461851003 3.288788637338083 M143.40423461851003 3.288788637338083 C143.3348063756788 3.827260378579951, 143.26537813284756 4.365732119821819, 143.12347608194491 5.466296404893227 M143.40423461851003 3.288788637338083 C143.32505390853927 3.902898587871662, 143.2458731985685 4.517008538405241, 143.12347608194491 5.466296404893227 M143.12347608194491 5.466296404893227 C143.0049630310775 6.074835873355209, 142.8864499802101 6.683375341817191, 142.70378099222745 7.621341988003764 M143.12347608194491 5.466296404893227 C142.97105631795864 6.248939679034171, 142.8186365539724 7.031582953175114, 142.70378099222745 7.621341988003764 M142.70378099222745 7.621341988003764 C142.5263419633948 8.297993907504239, 142.34890293456215 8.97464582700471, 142.14687396650564 9.745069842112848 M142.70378099222745 7.621341988003764 C142.52462062958492 8.30455809935208, 142.3454602669424 8.987774210700398, 142.14687396650564 9.745069842112848 M142.14687396650564 9.745069842112848 C141.93177108946645 10.392925435765665, 141.71666821242727 11.040781029418483, 141.4550434552043 11.82875311392978 M142.14687396650564 9.745069842112848 C141.89118302987768 10.515170204417982, 141.6354920932497 11.285270566723117, 141.4550434552043 11.82875311392978 M141.4550434552043 11.82875311392978 C141.14140750847238 12.603439966096133, 140.82777156174046 13.378126818262487, 140.6311323382916 13.863829501941987 M141.4550434552043 11.82875311392978 C141.2413215702554 12.356650301785114, 141.0275996853065 12.884547489640447, 140.6311323382916 13.863829501941987 M140.6311323382916 13.863829501941987 C140.2507390034844 14.653724400782618, 139.8703456686772 15.44361929962325, 139.67852624327526 15.8419364407486 M140.6311323382916 13.863829501941987 C140.38168348389223 14.381815385452697, 140.13223462949287 14.899801268963408, 139.67852624327526 15.8419364407486 M139.67852624327526 15.8419364407486 C139.438286088897 16.26850716180075, 139.19804593451875 16.695077882852893, 138.6011396329331 17.75494546463548 M139.67852624327526 15.8419364407486 C139.28545458007193 16.539874981588067, 138.8923829168686 17.237813522427537, 138.6011396329331 17.75494546463548 M138.6011396329331 17.75494546463548 C138.1672490109612 18.42151797593009, 137.7333583889893 19.0880904872247, 137.40339971994575 19.5949956091843 M138.6011396329331 17.75494546463548 C138.2768958573426 18.253070975587427, 137.9526520817521 18.751196486539374, 137.40339971994575 19.5949956091843 M137.40339971994575 19.5949956091843 C137.1125997661563 19.98464105484136, 136.82179981236686 20.374286500498425, 136.09022827453003 21.35452571366162 M137.40339971994575 19.5949956091843 C137.1006260911372 20.00068468854275, 136.79785246232862 20.406373767901208, 136.09022827453003 21.35452571366162 M136.09022827453003 21.35452571366162 C135.65976896761356 21.86016770939414, 135.2293096606971 22.36580970512666, 134.66702139982957 23.02630549145009 M136.09022827453003 21.35452571366162 C135.58823210332898 21.94419898074573, 135.0862359321279 22.533872247829837, 134.66702139982957 23.02630549145009 M134.66702139982957 23.02630549145009 C134.33279098574266 23.371425834822134, 133.9985605716558 23.716546178194175, 133.1396273581694 24.603465240847164 M134.66702139982957 23.02630549145009 C134.24256923958342 23.464587195074664, 133.8181170793373 23.90286889869924, 133.1396273581694 24.603465240847164 M133.1396273581694 24.603465240847164 C132.5443506938341 25.14407975723904, 131.9490740294988 25.684694273630917, 131.51432253929178 26.079524074142835 M133.1396273581694 24.603465240847164 C132.49314376703333 25.19058453329846, 131.84666017589726 25.777703825749757, 131.51432253929178 26.079524074142835 M131.51432253929178 26.079524074142835 C131.17008810979794 26.354041871201293, 130.82585368030408 26.628559668259754, 129.79778566932416 27.44841654897751 M131.51432253929178 26.079524074142835 C130.90756636064046 26.563395980157253, 130.3008101819891 27.047267886171667, 129.79778566932416 27.44841654897751 M129.79778566932416 27.44841654897751 C129.15904083041286 27.893977297783604, 128.52029599150157 28.339538046589695, 127.99707036646132 28.704517592545532 M129.79778566932416 27.44841654897751 C129.12444200745182 27.918111938922323, 128.45109834557948 28.387807328867137, 127.99707036646132 28.704517592545532 M127.99707036646132 28.704517592545532 C127.43985405041497 29.04230539789937, 126.88263773436861 29.38009320325321, 126.11957615613487 29.842665616226085 M127.99707036646132 28.704517592545532 C127.3781575149367 29.079706200275382, 126.75924466341209 29.454894808005236, 126.11957615613487 29.842665616226085 M126.11957615613487 29.842665616226085 C125.56568492726056 30.131630315545546, 125.01179369838626 30.42059501486501, 124.17301806477637 30.858183725657852 M126.11957615613487 29.842665616226085 C125.48566741446271 30.173375400718527, 124.85175867279054 30.50408518521097, 124.17301806477637 30.858183725657852 M124.17301806477637 30.858183725657852 C123.6641280591101 31.08345423548064, 123.15523805344384 31.308724745303433, 122.16539491711858 31.74689893910124 M124.17301806477637 30.858183725657852 C123.66066670046453 31.08498647627548, 123.14831533615269 31.311789226893104, 122.16539491711858 31.74689893910124 M122.16539491711858 31.74689893910124 C121.44207913890213 32.01308583174265, 120.71876336068567 32.279272724384064, 120.10495646730902 32.505159335115394 M122.16539491711858 31.74689893910124 C121.43480901344567 32.01576130511493, 120.70422310977276 32.28462367112862, 120.10495646730902 32.505159335115394 M120.10495646730902 32.505159335115394 C119.4285618654698 32.705909702473555, 118.7521672636306 32.90666006983172, 118.00016949890066 33.12984905908675 M120.10495646730902 32.505159335115394 C119.62145008737765 32.648661490702246, 119.13794370744628 32.792163646289104, 118.00016949890066 33.12984905908675 M118.00016949890066 33.12984905908675 C117.50174175749235 33.24361193851822, 117.00331401608405 33.35737481794968, 115.85968303302201 33.618401126943986 M118.00016949890066 33.12984905908675 C117.43047717364755 33.25987761473593, 116.86078484839442 33.3899061703851, 115.85968303302201 33.618401126943986 M115.85968303302201 33.618401126943986 C115.12355804458358 33.737412106340166, 114.38743305614516 33.856423085736346, 113.69229278769436 33.968807973446175 M115.85968303302201 33.618401126943986 C115.13789484078241 33.735094244314254, 114.41610664854281 33.85178736168452, 113.69229278769436 33.968807973446175 M113.69229278769436 33.968807973446175 C112.99941305422689 34.03564924802399, 112.30653332075943 34.1024905226018, 111.50690503433941 34.17962970169902 M113.69229278769436 33.968807973446175 C112.83020189630086 34.051972844922915, 111.96811100490737 34.13513771639966, 111.50690503433941 34.17962970169902 M111.50690503433941 34.17962970169902 C110.89446962597924 34.19926931321192, 110.28203421761907 34.21890892472483, 109.3125 34.25 M111.50690503433941 34.17962970169902 C110.9109841144194 34.19873972571115, 110.31506319449942 34.21784974972328, 109.3125 34.25 M109.3125 34.25 C109.3125 34.25, 109.3125 34.25, 109.3125 34.25 M109.3125 34.25 C109.3125 34.25, 109.3125 34.25, 109.3125 34.25 M109.3125 34.25 C36.06009084871573 34.25, -37.19231830256854 34.25, -109.3125 34.25 M109.3125 34.25 C41.41910118464891 34.25, -26.474297630702182 34.25, -109.3125 34.25 M-109.3125 34.25 C-110.11194281765088 34.224363424858986, -110.91138563530177 34.198726849717964, -111.5069050343394 34.17962970169902 M-109.3125 34.25 C-110.14706398620575 34.22323715734264, -110.9816279724115 34.196474314685275, -111.5069050343394 34.17962970169902 M-111.5069050343394 34.17962970169902 C-112.29694053092254 34.10341592750034, -113.08697602750567 34.027202153301666, -113.69229278769434 33.968807973446175 M-111.5069050343394 34.17962970169902 C-112.3293039344243 34.10029386888721, -113.15170283450921 34.020958036075406, -113.69229278769434 33.968807973446175 M-113.69229278769434 33.968807973446175 C-114.4485762755256 33.84653792419966, -115.20485976335684 33.72426787495315, -115.859683033022 33.618401126943986 M-113.69229278769434 33.968807973446175 C-114.36637038565793 33.85982833495727, -115.04044798362152 33.75084869646836, -115.859683033022 33.618401126943986 M-115.859683033022 33.618401126943986 C-116.71494567757425 33.42319300943527, -117.57020832212652 33.22798489192656, -118.00016949890062 33.12984905908676 M-115.859683033022 33.618401126943986 C-116.34812760004323 33.50691684192007, -116.83657216706446 33.39543255689615, -118.00016949890062 33.12984905908676 M-118.00016949890062 33.12984905908676 C-118.66474915627792 32.932605305226986, -119.32932881365522 32.73536155136721, -120.104956467309 32.50515933511541 M-118.00016949890062 33.12984905908676 C-118.71067059639512 32.91897606284676, -119.42117169388962 32.70810306660676, -120.104956467309 32.50515933511541 M-120.104956467309 32.50515933511541 C-120.64119069842619 32.30782018116938, -121.17742492954339 32.110481027223365, -122.16539491711856 31.746898939101246 M-120.104956467309 32.50515933511541 C-120.60775405847917 32.320125173754796, -121.11055164964935 32.135091012394184, -122.16539491711856 31.746898939101246 M-122.16539491711856 31.746898939101246 C-122.74776374394676 31.489101534821856, -123.33013257077496 31.231304130542465, -124.17301806477636 30.85818372565786 M-122.16539491711856 31.746898939101246 C-122.9479695178609 31.40047637760334, -123.73054411860323 31.054053816105437, -124.17301806477636 30.85818372565786 M-124.17301806477636 30.85818372565786 C-124.94176750446034 30.45712763538224, -125.71051694414433 30.05607154510662, -126.11957615613485 29.842665616226096 M-124.17301806477636 30.85818372565786 C-124.62997769829369 30.619788177548486, -125.086937331811 30.381392629439112, -126.11957615613485 29.842665616226096 M-126.11957615613485 29.842665616226096 C-126.57807904662623 29.56471846954816, -127.03658193711759 29.28677132287023, -127.99707036646127 28.704517592545557 M-126.11957615613485 29.842665616226096 C-126.64433097476953 29.524556161368142, -127.16908579340422 29.206446706510185, -127.99707036646127 28.704517592545557 M-127.99707036646127 28.704517592545557 C-128.37569542159494 28.440405144498776, -128.75432047672862 28.176292696452, -129.79778566932413 27.44841654897752 M-127.99707036646127 28.704517592545557 C-128.58968471210954 28.29113547888287, -129.18229905775783 27.877753365220187, -129.79778566932413 27.44841654897752 M-129.79778566932413 27.44841654897752 C-130.28752932590635 27.05785901547924, -130.77727298248857 26.667301481980967, -131.51432253929175 26.07952407414286 M-129.79778566932413 27.44841654897752 C-130.34528589808622 27.011799686132726, -130.8927861268483 26.575182823287932, -131.51432253929175 26.07952407414286 M-131.51432253929175 26.07952407414286 C-132.13912139726236 25.512098282605855, -132.76392025523293 24.944672491068854, -133.13962735816938 24.603465240847186 M-131.51432253929175 26.07952407414286 C-131.90393280919093 25.72569033554326, -132.29354307909014 25.371856596943662, -133.13962735816938 24.603465240847186 M-133.13962735816938 24.603465240847186 C-133.6873624835207 24.037883754031846, -134.235097608872 23.472302267216506, -134.66702139982957 23.0263054914501 M-133.13962735816938 24.603465240847186 C-133.50233924234797 24.228935441233286, -133.86505112652657 23.85440564161939, -134.66702139982957 23.0263054914501 M-134.66702139982957 23.0263054914501 C-135.06135884977826 22.5630942843038, -135.45569629972695 22.099883077157504, -136.09022827453 21.35452571366163 M-134.66702139982957 23.0263054914501 C-135.10994315400546 22.50602439603329, -135.5528649081814 21.98574330061648, -136.09022827453 21.35452571366163 M-136.09022827453 21.35452571366163 C-136.60279424416586 20.66773401007005, -137.1153602138017 19.980942306478468, -137.40339971994572 19.594995609184323 M-136.09022827453 21.35452571366163 C-136.47851042646673 20.834263003298176, -136.86679257840342 20.314000292934722, -137.40339971994572 19.594995609184323 M-137.40339971994572 19.594995609184323 C-137.649044247222 19.21761965049642, -137.89468877449832 18.84024369180852, -138.6011396329331 17.7549454646355 M-137.40339971994572 19.594995609184323 C-137.82636009646944 18.945214890080013, -138.24932047299313 18.295434170975703, -138.6011396329331 17.7549454646355 M-138.6011396329331 17.7549454646355 C-138.99083120110677 17.063008624792907, -139.38052276928045 16.371071784950313, -139.67852624327526 15.841936440748611 M-138.6011396329331 17.7549454646355 C-138.86200161776222 17.291758595431055, -139.12286360259137 16.828571726226606, -139.67852624327526 15.841936440748611 M-139.67852624327526 15.841936440748611 C-140.0460636752117 15.078737099291313, -140.41360110714817 14.315537757834017, -140.63113233829156 13.863829501942 M-139.67852624327526 15.841936440748611 C-140.03075624184353 15.110523312206917, -140.3829862404118 14.379110183665222, -140.63113233829156 13.863829501942 M-140.63113233829156 13.863829501942 C-140.9429365601475 13.093667045633358, -141.2547407820034 12.323504589324719, -141.4550434552043 11.828753113929807 M-140.63113233829156 13.863829501942 C-140.9335536756815 13.116842951670034, -141.23597501307148 12.369856401398069, -141.4550434552043 11.828753113929807 M-141.4550434552043 11.828753113929807 C-141.69105006187058 11.117938817197155, -141.9270566685369 10.407124520464503, -142.1468739665056 9.745069842112862 M-141.4550434552043 11.828753113929807 C-141.64334636477687 11.261614752291473, -141.83164927434945 10.69447639065314, -142.1468739665056 9.745069842112862 M-142.1468739665056 9.745069842112862 C-142.3009220573377 9.157617706905233, -142.4549701481698 8.570165571697602, -142.70378099222745 7.621341988003777 M-142.1468739665056 9.745069842112862 C-142.30520517852418 9.14128430950467, -142.46353639054277 8.537498776896475, -142.70378099222745 7.621341988003777 M-142.70378099222745 7.621341988003777 C-142.82263916537997 7.01103038954947, -142.94149733853246 6.400718791095162, -143.12347608194491 5.466296404893255 M-142.70378099222745 7.621341988003777 C-142.82050421259956 7.021992920854302, -142.9372274329717 6.4226438537048285, -143.12347608194491 5.466296404893255 M-143.12347608194491 5.466296404893255 C-143.2240628522194 4.686165277748816, -143.32464962249387 3.906034150604377, -143.40423461851003 3.288788637338126 M-143.12347608194491 5.466296404893255 C-143.1854179216729 4.985887727762761, -143.24735976140087 4.505479050632268, -143.40423461851003 3.288788637338126 M-143.40423461851003 3.288788637338126 C-143.43457548531418 2.816205146156618, -143.46491635211834 2.3436216549751103, -143.54490290487357 1.0977665318291936 M-143.40423461851003 3.288788637338126 C-143.45895542079853 2.436467971858338, -143.513676223087 1.5841473063785505, -143.54490290487357 1.0977665318291936 M-143.54490290487357 1.0977665318291936 C-143.54490290487357 0.5114980206713152, -143.54490290487357 -0.07477049048656315, -143.54490290487357 -1.0977665318291772 M-143.54490290487357 1.0977665318291936 C-143.54490290487357 0.387239338220845, -143.54490290487357 -0.3232878553875036, -143.54490290487357 -1.0977665318291772 M-143.54490290487357 -1.0977665318291772 C-143.50537556341015 -1.7134367810176596, -143.46584822194671 -2.329107030206142, -143.40423461851003 -3.288788637338079 M-143.54490290487357 -1.0977665318291772 C-143.50145371465985 -1.774522740962762, -143.45800452444615 -2.4512789500963468, -143.40423461851003 -3.288788637338079 M-143.40423461851003 -3.288788637338079 C-143.32106024632955 -3.9338726433324513, -143.23788587414904 -4.578956649326823, -143.12347608194491 -5.466296404893239 M-143.40423461851003 -3.288788637338079 C-143.31183600207018 -4.005414060275046, -143.21943738563033 -4.722039483212014, -143.12347608194491 -5.466296404893239 M-143.12347608194491 -5.466296404893239 C-143.0305095752879 -5.943659768098775, -142.93754306863093 -6.421023131304311, -142.70378099222745 -7.621341988003761 M-143.12347608194491 -5.466296404893239 C-143.00693603308173 -6.064704925057613, -142.89039598421854 -6.6631134452219865, -142.70378099222745 -7.621341988003761 M-142.70378099222745 -7.621341988003761 C-142.57121897818578 -8.126858400285009, -142.4386569641441 -8.632374812566258, -142.14687396650564 -9.745069842112844 M-142.70378099222745 -7.621341988003761 C-142.50203581714888 -8.390683777490365, -142.3002906420703 -9.16002556697697, -142.14687396650564 -9.745069842112844 M-142.14687396650564 -9.745069842112844 C-141.8991051058606 -10.491310173768817, -141.65133624521553 -11.237550505424787, -141.4550434552043 -11.828753113929762 M-142.14687396650564 -9.745069842112844 C-141.98473002471897 -10.233421560645532, -141.82258608293228 -10.721773279178219, -141.4550434552043 -11.828753113929762 M-141.4550434552043 -11.828753113929762 C-141.172356349468 -12.526995730481845, -140.88966924373167 -13.225238347033928, -140.6311323382916 -13.863829501941984 M-141.4550434552043 -11.828753113929762 C-141.19453795579253 -12.472206734008086, -140.93403245638072 -13.115660354086408, -140.6311323382916 -13.863829501941984 M-140.6311323382916 -13.863829501941984 C-140.29448713725802 -14.56288046494162, -139.9578419362244 -15.261931427941253, -139.67852624327526 -15.841936440748595 M-140.6311323382916 -13.863829501941984 C-140.38937995744521 -14.365833493441814, -140.1476275765988 -14.867837484941644, -139.67852624327526 -15.841936440748595 M-139.67852624327526 -15.841936440748595 C-139.32268440715944 -16.473769653665418, -138.9668425710436 -17.10560286658224, -138.6011396329331 -17.75494546463549 M-139.67852624327526 -15.841936440748595 C-139.29449827925566 -16.523816977913533, -138.91047031523604 -17.20569751507847, -138.6011396329331 -17.75494546463549 M-138.6011396329331 -17.75494546463549 C-138.1506097969925 -18.447080276840595, -137.7000799610519 -19.139215089045702, -137.40339971994575 -19.59499560918431 M-138.6011396329331 -17.75494546463549 C-138.34837721613573 -18.143256413048714, -138.0956147993384 -18.53156736146194, -137.40339971994575 -19.59499560918431 M-137.40339971994575 -19.59499560918431 C-136.9042922370265 -20.26375416666899, -136.4051847541073 -20.932512724153668, -136.09022827453003 -21.35452571366162 M-137.40339971994575 -19.59499560918431 C-137.06248271766916 -20.05179333405712, -136.72156571539256 -20.50859105892993, -136.09022827453003 -21.35452571366162 M-136.09022827453003 -21.35452571366162 C-135.7948611984327 -21.701480688108287, -135.49949412233536 -22.048435662554954, -134.66702139982957 -23.02630549145009 M-136.09022827453003 -21.35452571366162 C-135.6210379169271 -21.905663405389703, -135.15184755932412 -22.456801097117786, -134.66702139982957 -23.02630549145009 M-134.66702139982957 -23.02630549145009 C-134.22975277702784 -23.477821244914463, -133.79248415422612 -23.929336998378837, -133.13962735816943 -24.60346524084715 M-134.66702139982957 -23.02630549145009 C-134.21042447977632 -23.497779298709364, -133.7538275597231 -23.969253105968637, -133.13962735816943 -24.60346524084715 M-133.13962735816943 -24.60346524084715 C-132.65391956688129 -25.0445722057711, -132.16821177559316 -25.485679170695054, -131.51432253929178 -26.07952407414283 M-133.13962735816943 -24.60346524084715 C-132.76066768276374 -24.94762639132705, -132.38170800735801 -25.291787541806947, -131.51432253929178 -26.07952407414283 M-131.51432253929178 -26.07952407414283 C-131.09648186116652 -26.41274089574031, -130.67864118304124 -26.745957717337784, -129.79778566932416 -27.448416548977505 M-131.51432253929178 -26.07952407414283 C-131.14000859550328 -26.37802948340178, -130.7656946517148 -26.676534892660726, -129.79778566932416 -27.448416548977505 M-129.79778566932416 -27.448416548977505 C-129.37580855151853 -27.742769519263696, -128.9538314337129 -28.037122489549887, -127.99707036646132 -28.70451759254553 M-129.79778566932416 -27.448416548977505 C-129.186271402225 -27.87498242967991, -128.57475713512585 -28.301548310382316, -127.99707036646132 -28.70451759254553 M-127.99707036646132 -28.70451759254553 C-127.39142451424974 -29.071663667326277, -126.78577866203815 -29.438809742107026, -126.11957615613487 -29.842665616226082 M-127.99707036646132 -28.70451759254553 C-127.56305228802216 -28.96762190226868, -127.12903420958301 -29.230726211991833, -126.11957615613487 -29.842665616226082 M-126.11957615613487 -29.842665616226082 C-125.56637959156124 -30.131267909624835, -125.01318302698762 -30.419870203023585, -124.17301806477637 -30.858183725657852 M-126.11957615613487 -29.842665616226082 C-125.41514589302918 -30.21016643327921, -124.71071562992347 -30.577667250332333, -124.17301806477637 -30.858183725657852 M-124.17301806477637 -30.858183725657852 C-123.55717654185449 -31.130798499565664, -122.9413350189326 -31.403413273473475, -122.16539491711858 -31.746898939101236 M-124.17301806477637 -30.858183725657852 C-123.52297846808919 -31.145936972371747, -122.87293887140201 -31.43369021908564, -122.16539491711858 -31.746898939101236 M-122.16539491711858 -31.746898939101236 C-121.74255262862371 -31.902508809978613, -121.31971034012886 -32.05811868085599, -120.10495646730904 -32.505159335115394 M-122.16539491711858 -31.746898939101236 C-121.5018017994163 -31.99110734060321, -120.83820868171404 -32.235315742105186, -120.10495646730904 -32.505159335115394 M-120.10495646730904 -32.505159335115394 C-119.34668497567898 -32.73021033358291, -118.58841348404891 -32.95526133205043, -118.00016949890066 -33.129849059086744 M-120.10495646730904 -32.505159335115394 C-119.6807218802318 -32.63106993370713, -119.25648729315456 -32.75698053229886, -118.00016949890066 -33.129849059086744 M-118.00016949890066 -33.129849059086744 C-117.45053897779478 -33.255298638854825, -116.9009084566889 -33.3807482186229, -115.85968303302201 -33.618401126943986 M-118.00016949890066 -33.129849059086744 C-117.54521181977896 -33.233690180469964, -117.09025414065725 -33.33753130185318, -115.85968303302201 -33.618401126943986 M-115.85968303302201 -33.618401126943986 C-115.2739733224288 -33.713094130706054, -114.6882636118356 -33.80778713446812, -113.69229278769436 -33.968807973446175 M-115.85968303302201 -33.618401126943986 C-115.30617438085288 -33.707888113302985, -114.75266572868375 -33.797375099661984, -113.69229278769436 -33.968807973446175 M-113.69229278769436 -33.968807973446175 C-112.9233898824709 -34.04298311197205, -112.15448697724743 -34.117158250497916, -111.50690503433943 -34.17962970169902 M-113.69229278769436 -33.968807973446175 C-112.89114555140713 -34.046093683810284, -112.0899983151199 -34.1233793941744, -111.50690503433943 -34.17962970169902 M-111.50690503433943 -34.17962970169902 C-111.0118095613948 -34.19550644987148, -110.51671408845019 -34.21138319804393, -109.31250000000001 -34.25 M-111.50690503433943 -34.17962970169902 C-110.72829534401657 -34.20459819899585, -109.94968565369373 -34.22956669629268, -109.31250000000001 -34.25 M-109.31250000000001 -34.25 C-109.31250000000001 -34.25, -109.31250000000001 -34.25, -109.3125 -34.25 M-109.31250000000001 -34.25 C-109.31250000000001 -34.25, -109.3125 -34.25, -109.3125 -34.25" stroke="#4FA073" stroke-width="1.3" fill="none" stroke-dasharray="0 0" style="fill:#1E3025 !important;stroke:#4FA073 !important"></path></g><g class="label" style="color:#EDE6D7 !important" transform="translate(-130, -29.25)"><rect></rect><foreignObject width="260" height="58.5"><div style="color: rgb(237, 230, 215) !important; display: table; white-space: break-spaces; line-height: 1.5; max-width: 260px; text-align: center; width: 260px;" xmlns="http://www.w3.org/1999/xhtml"><span style="color:#EDE6D7 !important" class="nodeLabel "><p>all methods target the same DAG edge T → Y — they differ only in <i>how</i> they block the confounders X → T, X → Y</p></span></div></foreignObject></g></g></g></g></g><defs><filter id="d48cf444540759c8f-drop-shadow" height="130%" width="130%"><feDropShadow dx="4" dy="4" stdDeviation="0" flood-opacity="0.06" flood-color="#000000"></feDropShadow></filter></defs><defs><filter id="d48cf444540759c8f-drop-shadow-small" height="150%" width="150%"><feDropShadow dx="2" dy="2" stdDeviation="0" flood-opacity="0.06" flood-color="#000000"></feDropShadow></filter></defs><linearGradient id="d48cf444540759c8f-gradient" gradientUnits="objectBoundingBox" x1="0%" y1="0%" x2="100%" y2="0%"><stop offset="0%" stop-color="#4C4739" stop-opacity="1"></stop><stop offset="100%" stop-color="#4C4739" stop-opacity="1"></stop></linearGradient></svg>