<svg preserveAspectRatio="xMidYMid meet" width="1229" style="max-width:100%;height:auto" id="d65289a34638dbd43" xmlns="http://www.w3.org/2000/svg" class="flowchart" viewBox="0 0 1228.55859375 1050" role="graphics-document document" aria-roledescription="flowchart-v2"><style>#d65289a34638dbd43{font-family:system-ui,-apple-system,"Segoe UI",Roboto,sans-serif;font-size:13px;fill:#EDE6D7;}@keyframes edge-animation-frame{from{stroke-dashoffset:0;}}@keyframes dash{to{stroke-dashoffset:0;}}#d65289a34638dbd43 .edge-animation-slow{stroke-dasharray:9,5!important;stroke-dashoffset:900;animation:dash 50s linear infinite;stroke-linecap:round;}#d65289a34638dbd43 .edge-animation-fast{stroke-dasharray:9,5!important;stroke-dashoffset:900;animation:dash 20s linear infinite;stroke-linecap:round;}#d65289a34638dbd43 .error-icon{fill:#16140F;}#d65289a34638dbd43 .error-text{fill:#B4AA95;stroke:#B4AA95;}#d65289a34638dbd43 .edge-thickness-normal{stroke-width:1px;}#d65289a34638dbd43 .edge-thickness-thick{stroke-width:3.5px;}#d65289a34638dbd43 .edge-pattern-solid{stroke-dasharray:0;}#d65289a34638dbd43 .edge-thickness-invisible{stroke-width:0;fill:none;}#d65289a34638dbd43 .edge-pattern-dashed{stroke-dasharray:3;}#d65289a34638dbd43 .edge-pattern-dotted{stroke-dasharray:2;}#d65289a34638dbd43 .marker{fill:#7C7361;stroke:#7C7361;}#d65289a34638dbd43 .marker.cross{stroke:#7C7361;}#d65289a34638dbd43 svg{font-family:system-ui,-apple-system,"Segoe UI",Roboto,sans-serif;font-size:13px;}#d65289a34638dbd43 p{margin:0;}#d65289a34638dbd43 .label{font-family:system-ui,-apple-system,"Segoe UI",Roboto,sans-serif;color:#EDE6D7;}#d65289a34638dbd43 .cluster-label text{fill:#EDE6D7;}#d65289a34638dbd43 .cluster-label span{color:#EDE6D7;}#d65289a34638dbd43 .cluster-label span p{background-color:transparent;}#d65289a34638dbd43 .label text,#d65289a34638dbd43 span{fill:#EDE6D7;color:#EDE6D7;}#d65289a34638dbd43 .node rect,#d65289a34638dbd43 .node circle,#d65289a34638dbd43 .node ellipse,#d65289a34638dbd43 .node polygon,#d65289a34638dbd43 .node path{fill:#2C2820;stroke:#4C4739;stroke-width:1px;}#d65289a34638dbd43 .rough-node .label text,#d65289a34638dbd43 .node .label text,#d65289a34638dbd43 .image-shape .label,#d65289a34638dbd43 .icon-shape .label{text-anchor:middle;}#d65289a34638dbd43 .node .katex path{fill:#000;stroke:#000;stroke-width:1px;}#d65289a34638dbd43 .rough-node .label,#d65289a34638dbd43 .node .label,#d65289a34638dbd43 .image-shape .label,#d65289a34638dbd43 .icon-shape .label{text-align:center;}#d65289a34638dbd43 .node.clickable{cursor:pointer;}#d65289a34638dbd43 .root .anchor path{fill:#7C7361!important;stroke-width:0;stroke:#7C7361;}#d65289a34638dbd43 .arrowheadPath{fill:#e4e5e8;}#d65289a34638dbd43 .edgePaths .path{stroke:#7C7361;stroke-width:1px;}#d65289a34638dbd43 .flowchart-link{stroke:#7C7361;fill:none;}#d65289a34638dbd43 .edgeLabel{background-color:#1B1A17;text-align:center;}#d65289a34638dbd43 .edgeLabel p{background-color:#1B1A17;}#d65289a34638dbd43 .edgeLabel rect{opacity:0.5;background-color:#1B1A17;fill:#1B1A17;}#d65289a34638dbd43 .labelBkg{background-color:rgba(27, 26, 23, 0.5);}#d65289a34638dbd43 .cluster rect{fill:#16140F;stroke:#37332B;stroke-width:1px;}#d65289a34638dbd43 .cluster text{fill:#EDE6D7;}#d65289a34638dbd43 .cluster span{color:#EDE6D7;}#d65289a34638dbd43 .node .collapsed-indicator{fill:#37332B;stroke:none;opacity:0.6;}#d65289a34638dbd43 .node .collapsed-separator{stroke:#37332B;stroke-width:0.75px;}#d65289a34638dbd43 div.mermaidTooltip{position:absolute;text-align:center;max-width:200px;padding:2px;font-family:system-ui,-apple-system,"Segoe UI",Roboto,sans-serif;font-size:12px;background:#16140F;border:1px solid #37332B;border-radius:2px;pointer-events:none;z-index:100;}#d65289a34638dbd43 .flowchartTitleText{text-anchor:middle;font-size:18px;fill:#EDE6D7;}#d65289a34638dbd43 rect.text{fill:none;stroke-width:0;}#d65289a34638dbd43 .icon-shape,#d65289a34638dbd43 .image-shape{background-color:#1B1A17;text-align:center;}#d65289a34638dbd43 .icon-shape p,#d65289a34638dbd43 .image-shape p{background-color:#1B1A17;padding:2px;}#d65289a34638dbd43 .icon-shape .label rect,#d65289a34638dbd43 .image-shape .label rect{opacity:0.5;background-color:#1B1A17;fill:#1B1A17;}#d65289a34638dbd43 .label-icon{display:inline-block;height:1em;overflow:visible;vertical-align:-0.125em;}#d65289a34638dbd43 .node .label-icon path{fill:currentColor;stroke:revert;stroke-width:revert;}#d65289a34638dbd43 .node .neo-node{stroke:#4C4739;}#d65289a34638dbd43 [data-look="neo"].node rect,#d65289a34638dbd43 [data-look="neo"].cluster rect,#d65289a34638dbd43 [data-look="neo"].node polygon{stroke:url(#d65289a34638dbd43-gradient);filter:drop-shadow( 1px 2px 2px rgba(185,185,185,1));}#d65289a34638dbd43 [data-look="neo"].swimlane.cluster rect{filter:none;}#d65289a34638dbd43 [data-look="neo"].node path{stroke:url(#d65289a34638dbd43-gradient);stroke-width:1px;}#d65289a34638dbd43 [data-look="neo"].node .outer-path{filter:drop-shadow( 1px 2px 2px rgba(185,185,185,1));}#d65289a34638dbd43 [data-look="neo"].node .neo-line path{stroke:#4C4739;filter:none;}#d65289a34638dbd43 [data-look="neo"].node circle{stroke:url(#d65289a34638dbd43-gradient);filter:drop-shadow( 1px 2px 2px rgba(185,185,185,1));}#d65289a34638dbd43 [data-look="neo"].node circle .state-start{fill:#000000;}#d65289a34638dbd43 [data-look="neo"].icon-shape .icon{fill:url(#d65289a34638dbd43-gradient);filter:drop-shadow( 1px 2px 2px rgba(185,185,185,1));}#d65289a34638dbd43 [data-look="neo"].icon-shape .icon-neo path{stroke:url(#d65289a34638dbd43-gradient);filter:drop-shadow( 1px 2px 2px rgba(185,185,185,1));}#d65289a34638dbd43 :root{--mermaid-font-family:"trebuchet ms",verdana,arial,sans-serif;}#d65289a34638dbd43 .k>*{fill:rgb(30, 48, 37)!important;stroke:rgb(79, 160, 115)!important;color:rgb(237, 230, 215)!important;}#d65289a34638dbd43 .k span{fill:rgb(30, 48, 37)!important;stroke:rgb(79, 160, 115)!important;color:rgb(237, 230, 215)!important;}#d65289a34638dbd43 .k tspan{fill:rgb(237, 230, 215)!important;}</style><g><marker id="d65289a34638dbd43_flowchart-v2-pointEnd" class="marker flowchart-v2" viewBox="0 0 10 10" refX="5" refY="5" markerUnits="userSpaceOnUse" markerWidth="8" markerHeight="8" orient="auto"><path d="M 0 0 L 10 5 L 0 10 z" class="arrowMarkerPath" style="stroke-width: 1; stroke-dasharray: 1, 0;"></path></marker><marker id="d65289a34638dbd43_flowchart-v2-pointStart" class="marker flowchart-v2" viewBox="0 0 10 10" refX="4.5" refY="5" markerUnits="userSpaceOnUse" markerWidth="8" markerHeight="8" orient="auto"><path d="M 0 5 L 10 10 L 10 0 z" class="arrowMarkerPath" style="stroke-width: 1; stroke-dasharray: 1, 0;"></path></marker><marker id="d65289a34638dbd43_flowchart-v2-pointEnd-margin" class="marker flowchart-v2" viewBox="0 0 11.5 14" refX="11.5" refY="7" markerUnits="userSpaceOnUse" markerWidth="10.5" markerHeight="14" orient="auto"><path d="M 0 0 L 11.5 7 L 0 14 z" class="arrowMarkerPath" style="stroke-width: 0; stroke-dasharray: 1, 0;"></path></marker><marker id="d65289a34638dbd43_flowchart-v2-pointStart-margin" class="marker flowchart-v2" viewBox="0 0 11.5 14" refX="1" refY="7" markerUnits="userSpaceOnUse" markerWidth="11.5" markerHeight="14" orient="auto"><polygon points="0,7 11.5,14 11.5,0" class="arrowMarkerPath" style="stroke-width: 0; stroke-dasharray: 1, 0;"></polygon></marker><marker id="d65289a34638dbd43_flowchart-v2-circleEnd" class="marker flowchart-v2" viewBox="0 0 10 10" refX="11" refY="5" markerUnits="userSpaceOnUse" markerWidth="11" markerHeight="11" orient="auto"><circle cx="5" cy="5" r="5" class="arrowMarkerPath" style="stroke-width: 1; stroke-dasharray: 1, 0;"></circle></marker><marker id="d65289a34638dbd43_flowchart-v2-circleStart" class="marker flowchart-v2" viewBox="0 0 10 10" refX="-1" refY="5" markerUnits="userSpaceOnUse" markerWidth="11" markerHeight="11" orient="auto"><circle cx="5" cy="5" r="5" class="arrowMarkerPath" style="stroke-width: 1; stroke-dasharray: 1, 0;"></circle></marker><marker id="d65289a34638dbd43_flowchart-v2-circleEnd-margin" class="marker flowchart-v2" viewBox="0 0 10 10" refY="5" refX="12.25" markerUnits="userSpaceOnUse" markerWidth="14" markerHeight="14" orient="auto"><circle cx="5" cy="5" r="5" class="arrowMarkerPath" style="stroke-width: 0; stroke-dasharray: 1, 0;"></circle></marker><marker id="d65289a34638dbd43_flowchart-v2-circleStart-margin" class="marker flowchart-v2" viewBox="0 0 10 10" refX="-2" refY="5" markerUnits="userSpaceOnUse" markerWidth="14" markerHeight="14" orient="auto"><circle cx="5" cy="5" r="5" class="arrowMarkerPath" style="stroke-width: 0; stroke-dasharray: 1, 0;"></circle></marker><marker id="d65289a34638dbd43_flowchart-v2-crossEnd" class="marker cross flowchart-v2" viewBox="0 0 11 11" refX="12" refY="5.2" markerUnits="userSpaceOnUse" markerWidth="11" markerHeight="11" orient="auto"><path d="M 1,1 l 9,9 M 10,1 l -9,9" class="arrowMarkerPath" style="stroke-width: 2; stroke-dasharray: 1, 0;"></path></marker><marker id="d65289a34638dbd43_flowchart-v2-crossStart" class="marker cross flowchart-v2" viewBox="0 0 11 11" refX="-1" refY="5.2" markerUnits="userSpaceOnUse" markerWidth="11" markerHeight="11" orient="auto"><path d="M 1,1 l 9,9 M 10,1 l -9,9" class="arrowMarkerPath" style="stroke-width: 2; stroke-dasharray: 1, 0;"></path></marker><marker id="d65289a34638dbd43_flowchart-v2-crossEnd-margin" class="marker cross flowchart-v2" viewBox="0 0 15 15" refX="17.7" refY="7.5" markerUnits="userSpaceOnUse" markerWidth="12" markerHeight="12" orient="auto"><path d="M 1,1 L 14,14 M 1,14 L 14,1" class="arrowMarkerPath" style="stroke-width: 2.5;"></path></marker><marker id="d65289a34638dbd43_flowchart-v2-crossStart-margin" class="marker cross flowchart-v2" viewBox="0 0 15 15" refX="-3.5" refY="7.5" markerUnits="userSpaceOnUse" markerWidth="12" markerHeight="12" orient="auto"><path d="M 1,1 L 14,14 M 1,14 L 14,1" class="arrowMarkerPath" style="stroke-width: 2.5; stroke-dasharray: 1, 0;"></path></marker><g class="root"><g class="clusters"></g><g class="edgePaths"><path d="M444.102,47.5L444.102,62.5L444.102,73.5" id="d65289a34638dbd43-L_S_F_0" class=" edge-thickness-normal edge-pattern-solid edge-thickness-normal edge-pattern-solid flowchart-link" style=";" data-edge="true" data-et="edge" data-id="L_S_F_0" data-points="W3sieCI6NDQ0LjEwMTU2MjUsInkiOjQ3LjV9LHsieCI6NDQ0LjEwMTU2MjUsInkiOjYyLjV9LHsieCI6NDQ0LjEwMTU2MjUsInkiOjc3LjV9XQ==" data-look="classic" marker-end="url(#d65289a34638dbd43_flowchart-v2-pointEnd)"></path><path d="M444.102,156L444.102,171L444.102,182" id="d65289a34638dbd43-L_F_RNN_0" class=" edge-thickness-normal edge-pattern-solid edge-thickness-normal edge-pattern-solid flowchart-link" style=";" data-edge="true" data-et="edge" data-id="L_F_RNN_0" data-points="W3sieCI6NDQ0LjEwMTU2MjUsInkiOjE1Nn0seyJ4Ijo0NDQuMTAxNTYyNSwieSI6MTcxfSx7IngiOjQ0NC4xMDE1NjI1LCJ5IjoxODZ9XQ==" data-look="classic" marker-end="url(#d65289a34638dbd43_flowchart-v2-pointEnd)"></path><path d="M444.102,284L444.102,308.75L444.102,329.5" id="d65289a34638dbd43-L_RNN_BPTT_0" class=" edge-thickness-normal edge-pattern-solid edge-thickness-normal edge-pattern-solid flowchart-link" style=";" data-edge="true" data-et="edge" data-id="L_RNN_BPTT_0" data-points="W3sieCI6NDQ0LjEwMTU2MjUsInkiOjI4NH0seyJ4Ijo0NDQuMTAxNTYyNSwieSI6MzA4Ljc1fSx7IngiOjQ0NC4xMDE1NjI1LCJ5IjozMzMuNX1d" data-look="classic" marker-end="url(#d65289a34638dbd43_flowchart-v2-pointEnd)"></path><path d="M294.102,442.775L136.93,485.5L136.93,525.75" id="d65289a34638dbd43-L_BPTT_CLIP_0" class=" edge-thickness-normal edge-pattern-solid edge-thickness-normal edge-pattern-solid flowchart-link" style=";" data-edge="true" data-et="edge" data-id="L_BPTT_CLIP_0" data-points="W3sieCI6Mjk0LjEwMTU2MjUsInkiOjQ0Mi43NzUyMTc0NTc2NTI5Nn0seyJ4IjoxMzYuOTI5Njg3NSwieSI6NDg1LjV9LHsieCI6MTM2LjkyOTY4NzUsInkiOjUyOS43NX1d" data-look="classic" marker-end="url(#d65289a34638dbd43_flowchart-v2-pointEnd)"></path><path d="M444.102,470.5L444.102,485.5L444.102,525.75" id="d65289a34638dbd43-L_BPTT_TR_0" class=" edge-thickness-normal edge-pattern-solid edge-thickness-normal edge-pattern-solid flowchart-link" style=";" data-edge="true" data-et="edge" data-id="L_BPTT_TR_0" data-points="W3sieCI6NDQ0LjEwMTU2MjUsInkiOjQ3MC41fSx7IngiOjQ0NC4xMDE1NjI1LCJ5Ijo0ODUuNX0seyJ4Ijo0NDQuMTAxNTYyNSwieSI6NTI5Ljc1fV0=" data-look="classic" marker-end="url(#d65289a34638dbd43_flowchart-v2-pointEnd)"></path><path d="M594.102,440.158L772.344,485.5L772.344,496.5" id="d65289a34638dbd43-L_BPTT_LSTM_0" class=" edge-thickness-normal edge-pattern-solid edge-thickness-normal edge-pattern-solid flowchart-link" style=";" data-edge="true" data-et="edge" data-id="L_BPTT_LSTM_0" data-points="W3sieCI6NTk0LjEwMTU2MjUsInkiOjQ0MC4xNTc4MDA3ODU0MzM4fSx7IngiOjc3Mi4zNDM3NSwieSI6NDg1LjV9LHsieCI6NzcyLjM0Mzc1LCJ5Ijo1MDAuNX1d" data-look="classic" marker-end="url(#d65289a34638dbd43_flowchart-v2-pointEnd)"></path><path d="M666.223,618L639.129,633L639.129,644" id="d65289a34638dbd43-L_LSTM_GRU_0" class=" edge-thickness-normal edge-pattern-solid edge-thickness-normal edge-pattern-solid flowchart-link" style=";" data-edge="true" data-et="edge" data-id="L_LSTM_GRU_0" data-points="W3sieCI6NjY2LjIyMzQ1MDc0MTUyNTQsInkiOjYxOH0seyJ4Ijo2MzkuMTI4OTA2MjUsInkiOjYzM30seyJ4Ijo2MzkuMTI4OTA2MjUsInkiOjY0OH1d" data-look="classic" marker-end="url(#d65289a34638dbd43_flowchart-v2-pointEnd)"></path><path d="M878.464,618L905.559,633L905.559,663.5" id="d65289a34638dbd43-L_LSTM_LIM_0" class=" edge-thickness-normal edge-pattern-solid edge-thickness-normal edge-pattern-solid flowchart-link" style=";" data-edge="true" data-et="edge" data-id="L_LSTM_LIM_0" data-points="W3sieCI6ODc4LjQ2NDA0OTI1ODQ3NDYsInkiOjYxOH0seyJ4Ijo5MDUuNTU4NTkzNzUsInkiOjYzM30seyJ4Ijo5MDUuNTU4NTkzNzUsInkiOjY2Ny41fV0=" data-look="classic" marker-end="url(#d65289a34638dbd43_flowchart-v2-pointEnd)"></path><path d="M845.489,707L740.559,741.5L740.559,762.25" id="d65289a34638dbd43-L_LIM_BI_0" class=" edge-thickness-normal edge-pattern-solid edge-thickness-normal edge-pattern-solid flowchart-link" style=";" data-edge="true" data-et="edge" data-id="L_LIM_BI_0" data-points="W3sieCI6ODQ1LjQ4OTQ2OTMyNjAzNjksInkiOjcwN30seyJ4Ijo3NDAuNTU4NTkzNzUsInkiOjc0MS41fSx7IngiOjc0MC41NTg1OTM3NSwieSI6NzY2LjI1fV0=" data-look="classic" marker-end="url(#d65289a34638dbd43_flowchart-v2-pointEnd)"></path><path d="M965.628,707L1070.559,741.5L1070.559,752.5" id="d65289a34638dbd43-L_LIM_S2S_0" class=" edge-thickness-normal edge-pattern-solid edge-thickness-normal edge-pattern-solid flowchart-link" style=";" data-edge="true" data-et="edge" data-id="L_LIM_S2S_0" data-points="W3sieCI6OTY1LjYyNzcxODE3Mzk2MzEsInkiOjcwN30seyJ4IjoxMDcwLjU1ODU5Mzc1LCJ5Ijo3NDEuNX0seyJ4IjoxMDcwLjU1ODU5Mzc1LCJ5Ijo3NTYuNX1d" data-look="classic" marker-end="url(#d65289a34638dbd43_flowchart-v2-pointEnd)"></path><path d="M1070.559,854.5L1070.559,869.5L1070.93,881.002" id="d65289a34638dbd43-L_S2S_ATT_0" class=" edge-thickness-normal edge-pattern-solid edge-thickness-normal edge-pattern-solid flowchart-link" style=";" data-edge="true" data-et="edge" data-id="L_S2S_ATT_0" data-points="W3sieCI6MTA3MC41NTg1OTM3NSwieSI6ODU0LjV9LHsieCI6MTA3MC41NTg1OTM3NSwieSI6ODY5LjV9LHsieCI6MTA3MS4wNTg1OTM3NSwieSI6ODg1fV0=" data-look="classic" marker-end="url(#d65289a34638dbd43_flowchart-v2-pointEnd)"></path><path d="M1071.059,934L1070.559,948.5L1070.559,959.5" id="d65289a34638dbd43-L_ATT_BUILD_0" class=" edge-thickness-normal edge-pattern-solid edge-thickness-normal edge-pattern-solid flowchart-link" style=";" data-edge="true" data-et="edge" data-id="L_ATT_BUILD_0" data-points="W3sieCI6MTA3MS4wNTg1OTM3NSwieSI6OTM0fSx7IngiOjEwNzAuNTU4NTkzNzUsInkiOjk0OC41fSx7IngiOjEwNzAuNTU4NTkzNzUsInkiOjk2My41fV0=" data-look="classic" marker-end="url(#d65289a34638dbd43_flowchart-v2-pointEnd)"></path></g><g class="edgeLabels"><g class="edgeLabel"><g class="label" data-id="L_S_F_0" transform="translate(0, 0)"><foreignObject width="0" height="0"><div xmlns="http://www.w3.org/1999/xhtml" class="labelBkg" style="display: table-cell; white-space: nowrap; line-height: 1.5; max-width: 200px; text-align: center;"><span class="edgeLabel "></span></div></foreignObject></g></g><g class="edgeLabel"><g class="label" data-id="L_F_RNN_0" transform="translate(0, 0)"><foreignObject width="0" height="0"><div xmlns="http://www.w3.org/1999/xhtml" class="labelBkg" style="display: table-cell; white-space: nowrap; line-height: 1.5; max-width: 200px; text-align: center;"><span class="edgeLabel "></span></div></foreignObject></g></g><g class="edgeLabel" transform="translate(444.1015625, 308.75)"><g class="label" data-id="L_RNN_BPTT_0" transform="translate(-74.3671875, -9.75)"><foreignObject width="148.734375" height="19.5"><div xmlns="http://www.w3.org/1999/xhtml" class="labelBkg" style="display: table-cell; white-space: nowrap; line-height: 1.5; max-width: 200px; text-align: center;"><span class="edgeLabel "><p>differentiate through time</p></span></div></foreignObject></g></g><g class="edgeLabel"><g class="label" data-id="L_BPTT_CLIP_0" transform="translate(0, 0)"><foreignObject width="0" height="0"><div xmlns="http://www.w3.org/1999/xhtml" class="labelBkg" style="display: table-cell; white-space: nowrap; line-height: 1.5; max-width: 200px; text-align: center;"><span class="edgeLabel "></span></div></foreignObject></g></g><g class="edgeLabel"><g class="label" data-id="L_BPTT_TR_0" transform="translate(0, 0)"><foreignObject width="0" height="0"><div xmlns="http://www.w3.org/1999/xhtml" class="labelBkg" style="display: table-cell; white-space: nowrap; line-height: 1.5; max-width: 200px; text-align: center;"><span class="edgeLabel "></span></div></foreignObject></g></g><g class="edgeLabel"><g class="label" data-id="L_BPTT_LSTM_0" transform="translate(0, 0)"><foreignObject width="0" height="0"><div xmlns="http://www.w3.org/1999/xhtml" class="labelBkg" style="display: table-cell; white-space: nowrap; line-height: 1.5; max-width: 200px; text-align: center;"><span class="edgeLabel "></span></div></foreignObject></g></g><g class="edgeLabel"><g class="label" data-id="L_LSTM_GRU_0" transform="translate(0, 0)"><foreignObject width="0" height="0"><div xmlns="http://www.w3.org/1999/xhtml" class="labelBkg" style="display: table-cell; white-space: nowrap; line-height: 1.5; max-width: 200px; text-align: center;"><span class="edgeLabel "></span></div></foreignObject></g></g><g class="edgeLabel"><g class="label" data-id="L_LSTM_LIM_0" transform="translate(0, 0)"><foreignObject width="0" height="0"><div xmlns="http://www.w3.org/1999/xhtml" class="labelBkg" style="display: table-cell; white-space: nowrap; line-height: 1.5; max-width: 200px; text-align: center;"><span class="edgeLabel "></span></div></foreignObject></g></g><g class="edgeLabel"><g class="label" data-id="L_LIM_BI_0" transform="translate(0, 0)"><foreignObject width="0" height="0"><div xmlns="http://www.w3.org/1999/xhtml" class="labelBkg" style="display: table-cell; white-space: nowrap; line-height: 1.5; max-width: 200px; text-align: center;"><span class="edgeLabel "></span></div></foreignObject></g></g><g class="edgeLabel"><g class="label" data-id="L_LIM_S2S_0" transform="translate(0, 0)"><foreignObject width="0" height="0"><div xmlns="http://www.w3.org/1999/xhtml" class="labelBkg" style="display: table-cell; white-space: nowrap; line-height: 1.5; max-width: 200px; text-align: center;"><span class="edgeLabel "></span></div></foreignObject></g></g><g class="edgeLabel"><g class="label" data-id="L_S2S_ATT_0" transform="translate(0, 0)"><foreignObject width="0" height="0"><div xmlns="http://www.w3.org/1999/xhtml" class="labelBkg" style="display: table-cell; white-space: nowrap; line-height: 1.5; max-width: 200px; text-align: center;"><span class="edgeLabel "></span></div></foreignObject></g></g><g class="edgeLabel"><g class="label" data-id="L_ATT_BUILD_0" transform="translate(0, 0)"><foreignObject width="0" height="0"><div xmlns="http://www.w3.org/1999/xhtml" class="labelBkg" style="display: table-cell; white-space: nowrap; line-height: 1.5; max-width: 200px; text-align: center;"><span class="edgeLabel "></span></div></foreignObject></g></g></g><g class="nodes"><g class="node default  " id="d65289a34638dbd43-flowchart-S-0" data-look="classic" transform="translate(444.1015625, 27.75)"><rect class="basic label-container" style="" x="-146.21875" y="-19.75" width="292.4375" height="39.5"></rect><g class="label" style="" transform="translate(-126.21875, -9.75)"><rect></rect><foreignObject width="252.4375" height="19.5"><div xmlns="http://www.w3.org/1999/xhtml" style="display: table-cell; white-space: nowrap; line-height: 1.5; max-width: 260px; text-align: center;"><span class="nodeLabel "><p><b>Sequences</b> — data where order matters · §1</p></span></div></foreignObject></g></g><g class="node default  " id="d65289a34638dbd43-flowchart-F-2" data-look="classic" transform="translate(444.1015625, 116.75)"><rect class="basic label-container" style="" x="-150" y="-39.25" width="300" height="78.5"></rect><g class="label" style="" transform="translate(-130, -29.25)"><rect></rect><foreignObject width="260" height="58.5"><div xmlns="http://www.w3.org/1999/xhtml" style="display: table; white-space: break-spaces; line-height: 1.5; max-width: 260px; text-align: center; width: 260px;"><span class="nodeLabel "><p><b>three failures of a feedforward net</b> · §2<br/><small>variable length · no order awareness · no parameter sharing</small></p></span></div></foreignObject></g></g><g class="node default k " id="d65289a34638dbd43-flowchart-RNN-4" data-look="classic" transform="translate(444.1015625, 235)"><rect class="basic label-container" style="fill:#1E3025 !important;stroke:#4FA073 !important" x="-150" y="-49" width="300" height="98"></rect><g class="label" style="color:#EDE6D7 !important" transform="translate(-130, -39)"><rect></rect><foreignObject width="260" height="78"><div style="color: rgb(237, 230, 215) !important; display: table; white-space: break-spaces; line-height: 1.5; max-width: 260px; text-align: center; width: 260px;" xmlns="http://www.w3.org/1999/xhtml"><span style="color:#EDE6D7 !important" class="nodeLabel "><p><b>RNN</b> · hₜ = tanh(W_hh hₜ₋₁ + W_xh xₜ + b) · §3–4<br/><small>one shared W + a hidden state carried forward · hₜ = a compressed summary of x₁…xₜ</small></p></span></div></foreignObject></g></g><g class="node default  " id="d65289a34638dbd43-flowchart-BPTT-6" data-look="classic" transform="translate(444.1015625, 402)"><rect class="basic label-container" style="" x="-150" y="-68.5" width="300" height="137"></rect><g class="label" style="" transform="translate(-130, -58.5)"><rect></rect><foreignObject width="260" height="117"><div xmlns="http://www.w3.org/1999/xhtml" style="display: table; white-space: break-spaces; line-height: 1.5; max-width: 260px; text-align: center; width: 260px;"><span class="nodeLabel "><p><b>∂L/∂h_k = ∂L/∂h_T · Π W_hhᵀ · diag(1 − hₜ²)</b> · §5–6<br/><small>a product of T factors, each &lt; 1 · ρ(W_hh) &lt; 1 → vanish · &gt; 1 → explode<br/>0.9¹⁰⁰ ≈ 0.0000265 → dead · effective memory ≈ 44 steps</small></p></span></div></foreignObject></g></g><g class="node default  " id="d65289a34638dbd43-flowchart-CLIP-8" data-look="classic" transform="translate(136.9296875, 559.25)"><rect class="basic label-container" style="" x="-128.9296875" y="-29.5" width="257.859375" height="59"></rect><g class="label" style="" transform="translate(-108.9296875, -19.5)"><rect></rect><foreignObject width="217.859375" height="39"><div xmlns="http://www.w3.org/1999/xhtml" style="display: table-cell; white-space: nowrap; line-height: 1.5; max-width: 260px; text-align: center;"><span class="nodeLabel "><p>gradient clipping<br/><small>fixes explode only — rescales, keeps direction</small></p></span></div></foreignObject></g></g><g class="node default  " id="d65289a34638dbd43-flowchart-TR-10" data-look="classic" transform="translate(444.1015625, 559.25)"><rect class="basic label-container" style="" x="-148.2421875" y="-29.5" width="296.484375" height="59"></rect><g class="label" style="" transform="translate(-128.2421875, -19.5)"><rect></rect><foreignObject width="256.484375" height="39"><div xmlns="http://www.w3.org/1999/xhtml" style="display: table-cell; white-space: nowrap; line-height: 1.5; max-width: 260px; text-align: center;"><span class="nodeLabel "><p>truncated BPTT<br/><small>a compute fix, not a learning fix — deletes long range</small></p></span></div></foreignObject></g></g><g class="node default k " id="d65289a34638dbd43-flowchart-LSTM-12" data-look="classic" transform="translate(772.34375, 559.25)"><rect class="basic label-container" style="fill:#1E3025 !important;stroke:#4FA073 !important" x="-150" y="-58.75" width="300" height="117.5"></rect><g class="label" style="color:#EDE6D7 !important" transform="translate(-130, -48.75)"><rect></rect><foreignObject width="260" height="97.5"><div style="color: rgb(237, 230, 215) !important; display: table; white-space: break-spaces; line-height: 1.5; max-width: 260px; text-align: center; width: 260px;" xmlns="http://www.w3.org/1999/xhtml"><span style="color:#EDE6D7 !important" class="nodeLabel "><p><b>LSTM</b> · Cₜ = fₜ ⊙ Cₜ₋₁ + iₜ ⊙ C̃ₜ · §9–11<br/><small>ADDITION, so ∂Cₜ/∂Cₜ₋₁ = fₜ — a learned number · 0.99¹⁰⁰ ≈ 0.366 → survives<br/>forget = ERASE · input = WRITE · output = REVEAL · C is protected, h is the exposed view</small></p></span></div></foreignObject></g></g><g class="node default  " id="d65289a34638dbd43-flowchart-GRU-14" data-look="classic" transform="translate(639.12890625, 687.25)"><rect class="basic label-container" style="" x="-150" y="-39.25" width="300" height="78.5"></rect><g class="label" style="" transform="translate(-130, -29.25)"><rect></rect><foreignObject width="260" height="58.5"><div xmlns="http://www.w3.org/1999/xhtml" style="display: table; white-space: break-spaces; line-height: 1.5; max-width: 260px; text-align: center; width: 260px;"><span class="nodeLabel "><p><b>GRU</b> · §15<br/><small>merge f, i → z · drop the cell state · ¾ the params · ⚠ z-convention trap</small></p></span></div></foreignObject></g></g><g class="node default  " id="d65289a34638dbd43-flowchart-LIM-16" data-look="classic" transform="translate(905.55859375, 687.25)"><rect class="basic label-container" style="" x="-86.4296875" y="-19.75" width="172.859375" height="39.5"></rect><g class="label" style="" transform="translate(-66.4296875, -9.75)"><rect></rect><foreignObject width="132.859375" height="19.5"><div xmlns="http://www.w3.org/1999/xhtml" style="display: table-cell; white-space: nowrap; line-height: 1.5; max-width: 260px; text-align: center;"><span class="nodeLabel "><p>still limited in two ways</p></span></div></foreignObject></g></g><g class="node default  " id="d65289a34638dbd43-flowchart-BI-18" data-look="classic" transform="translate(740.55859375, 805.5)"><rect class="basic label-container" style="" x="-150" y="-39.25" width="300" height="78.5"></rect><g class="label" style="" transform="translate(-130, -29.25)"><rect></rect><foreignObject width="260" height="58.5"><div xmlns="http://www.w3.org/1999/xhtml" style="display: table; white-space: break-spaces; line-height: 1.5; max-width: 260px; text-align: center; width: 260px;"><span class="nodeLabel "><p><b>BiRNN</b> · §17–19<br/><small>reads only one way → h = [h→ ; h←] · dim = 2 × hidden · illegal if you generate</small></p></span></div></foreignObject></g></g><g class="node default  " id="d65289a34638dbd43-flowchart-S2S-20" data-look="classic" transform="translate(1070.55859375, 805.5)"><rect class="basic label-container" style="" x="-150" y="-49" width="300" height="98"></rect><g class="label" style="" transform="translate(-130, -39)"><rect></rect><foreignObject width="260" height="78"><div xmlns="http://www.w3.org/1999/xhtml" style="display: table; white-space: break-spaces; line-height: 1.5; max-width: 260px; text-align: center; width: 260px;"><span class="nodeLabel "><p><b>Seq2Seq</b> · §20<br/><small>one output per input → encoder → context → decoder · lengths independent · ⚠ context = bottleneck</small></p></span></div></foreignObject></g></g><g class="node default k " id="d65289a34638dbd43-flowchart-ATT-22" data-look="classic" transform="translate(1070.55859375, 909)"><g class="basic label-container outer-path"><path d="M-116.625 -24.5 C-39.16197106645566 -24.5, 38.30105786708867 -24.5, 116.625 -24.5 C116.625 -24.5, 116.625 -24.5, 116.625 -24.5 C116.96069620723969 -24.489234876026853, 117.29639241447939 -24.4784697520537, 118.19472038952746 -24.44966212238324 C118.57053205546559 -24.413408022949845, 118.94634372140372 -24.37715392351645, 119.7579904612704 -24.29885533866953 C120.17097979305379 -24.23208642628689, 120.58396912483718 -24.165317513904256, 121.30838640318362 -24.048199346281102 C121.6713016332339 -23.965366313265324, 122.03421686328417 -23.88253328024955, 122.83953730578293 -23.69872414445622 C123.4202900278274 -23.526359784986667, 124.00104274987189 -23.353995425517112, 124.34515134157871 -23.251865801761383 C124.68830965246886 -23.12558037123316, 125.03146796335899 -22.99929494070493, 125.81904161954466 -22.709460554977532 C126.17755144935667 -22.550758888136002, 126.53606127916868 -22.392057221294476, 127.25515160838017 -22.07373726360927 C127.78670554060551 -21.796425917643855, 128.31825947283085 -21.51911457167844, 128.64758002409647 -21.347308251023044 C128.94364477252043 -21.16783206065885, 129.23970952094442 -20.988355870294654, 129.99060507965845 -20.533158569850098 C130.41576682928002 -20.236584138269603, 130.84092857890155 -19.940009706689107, 131.2787079970348 -19.634633735764936 C131.55764656093402 -19.412187653922228, 131.83658512483325 -19.189741572079523, 132.50659568504082 -18.655425980043795 C132.7748800721316 -18.411777198103845, 133.0431644592224 -18.168128416163896, 133.66922248978543 -17.599559077394325 C133.95929672696084 -17.300033611972932, 134.24937096413623 -17.00050814655154, 134.76181092834523 -16.471371811402268 C135.02555429343818 -16.161563847341462, 135.28929765853115 -15.851755883280656, 135.77987132046673 -15.275500145538974 C136.00857483655648 -14.969058269297646, 136.23727835264623 -14.662616393056318, 136.71922023762542 -14.016858172993162 C136.93987641969989 -13.677871022845494, 137.16053260177432 -13.338883872697826, 137.57599769363097 -12.700617923607867 C137.7702944866194 -12.35562429297315, 137.96459127960784 -12.010630662338434, 138.3466830061385 -11.332188110900464 C138.60326175844483 -10.799396841830534, 138.85984051075118 -10.266605572760604, 139.02810926388742 -9.917191906498655 C139.2374942226444 -9.400007010186162, 139.44687918140136 -8.882822113873669, 139.61747634021913 -8.461443833322049 C139.7167655692743 -8.162400494998252, 139.81605479832942 -7.863357156674455, 140.1123623993982 -6.970925872460302 C140.20982489262178 -6.59925914528692, 140.3072873858454 -6.22759241811354, 140.51073384845466 -5.451762881929706 C140.60911427326624 -4.946600193232428, 140.70749469807782 -4.441437504535151, 140.81095369365403 -3.9101974283178 C140.8698050275341 -3.453758104254214, 140.9286563614142 -2.9973187801906276, 141.01178826725535 -2.3525641347382074 C141.04215576527707 -1.879565840846658, 141.0725232632988 -1.4065675469551087, 141.11241229691686 -0.7852636505055516 C141.11241229691686 -0.3419398197463177, 141.11241229691686 0.10138401101291616, 141.11241229691686 0.7852636505055456 C141.07239261661599 1.408602474495923, 141.03237293631514 2.0319412984863003, 141.01178826725535 2.352564134738191 C140.9601592067184 2.7529889329516313, 140.90853014618145 3.153413731165071, 140.81095369365403 3.910197428317783 C140.71097739454433 4.423554594247734, 140.61100109543463 4.936911760177684, 140.51073384845466 5.4517628819296995 C140.42773206709953 5.768284647436413, 140.34473028574442 6.084806412943126, 140.1123623993982 6.970925872460286 C139.99621511149252 7.3207429980749685, 139.88006782358684 7.670560123689652, 139.61747634021913 8.461443833322033 C139.39754875678688 9.004669216410278, 139.17762117335462 9.547894599498525, 139.02810926388742 9.917191906498648 C138.80668053323188 10.37699340352072, 138.58525180257635 10.836794900542792, 138.3466830061385 11.332188110900459 C138.06209326709913 11.837506010400842, 137.77750352805978 12.342823909901227, 137.575997693631 12.700617923607862 C137.38459367483426 12.994665895655238, 137.19318965603753 13.288713867702615, 136.71922023762542 14.016858172993148 C136.40572692062275 14.436910657948001, 136.0922336036201 14.856963142902854, 135.77987132046673 15.275500145538967 C135.46138547574537 15.649611741106629, 135.142899631024 16.02372333667429, 134.76181092834523 16.471371811402253 C134.3532541923633 16.893240184435452, 133.94469745638136 17.315108557468648, 133.66922248978543 17.59955907739432 C133.33339244875674 17.90455103508061, 132.99756240772803 18.209542992766895, 132.50659568504082 18.65542598004378 C132.1403447905411 18.947501322061683, 131.7740938960414 19.239576664079586, 131.2787079970348 19.634633735764936 C130.7851256291524 19.97893542876337, 130.29154326126996 20.323237121761807, 129.99060507965845 20.53315856985009 C129.53925327007087 20.806770689259725, 129.0879014604833 21.08038280866936, 128.64758002409647 21.34730825102304 C128.12825426907378 21.61824016477436, 127.60892851405107 21.88917207852568, 127.25515160838017 22.073737263609267 C126.81157461684394 22.27009563951842, 126.36799762530771 22.46645401542757, 125.81904161954468 22.70946055497753 C125.40331473182935 22.86245189259399, 124.98758784411403 23.01544323021045, 124.34515134157873 23.251865801761376 C123.94611838955203 23.37029668735619, 123.54708543752534 23.488727572951007, 122.83953730578295 23.698724144456214 C122.27672957676052 23.827181335941926, 121.71392184773808 23.95563852742764, 121.30838640318363 24.048199346281102 C120.8935970055718 24.11525927934716, 120.47880760796 24.18231921241322, 119.75799046127041 24.29885533866953 C119.13325220741463 24.35912308666132, 118.50851395355885 24.419390834653107, 118.19472038952746 24.44966212238324 C117.72883849328512 24.464602048011635, 117.26295659704277 24.479541973640025, 116.625 24.5 C116.625 24.5, 116.625 24.5, 116.625 24.5 C60.6002364000171 24.5, 4.5754728000342055 24.5, -116.625 24.5 C-117.11228607437168 24.484373684039706, -117.59957214874336 24.468747368079413, -118.19472038952746 24.44966212238324 C-118.74606826356121 24.39647425606804, -119.29741613759495 24.343286389752834, -119.7579904612704 24.29885533866953 C-120.35296120326242 24.202665083171276, -120.94793194525444 24.106474827673022, -121.30838640318362 24.048199346281102 C-121.79481394991252 23.93717543297662, -122.28124149664141 23.826151519672138, -122.83953730578293 23.69872414445622 C-123.36324729177979 23.54328976962217, -123.88695727777663 23.38785539478812, -124.3451513415787 23.251865801761387 C-124.76974786903065 23.095610354731793, -125.1943443964826 22.9393549077022, -125.81904161954466 22.709460554977532 C-126.3852099516088 22.45883462915959, -126.95137828367295 22.208208703341647, -127.25515160838017 22.07373726360927 C-127.6410704642814 21.872403643678428, -128.02698932018262 21.671070023747582, -128.64758002409647 21.347308251023048 C-128.95305161181602 21.162129579397153, -129.25852319953555 20.976950907771254, -129.99060507965842 20.533158569850105 C-130.35795203960083 20.276913232787876, -130.72529899954324 20.020667895725648, -131.2787079970348 19.63463373576494 C-131.68981329549678 19.30678820021295, -132.10091859395877 18.97894266466096, -132.50659568504082 18.6554259800438 C-132.92804228798417 18.272679326116712, -133.34948889092752 17.88993267218963, -133.6692224897854 17.599559077394336 C-134.04048940299663 17.216195507923295, -134.41175631620786 16.832831938452255, -134.76181092834523 16.47137181140226 C-135.16152894420355 16.001840285375653, -135.56124696006185 15.532308759349046, -135.77987132046673 15.275500145538976 C-135.99639812198546 14.985373957501297, -136.2129249235042 14.695247769463617, -136.71922023762542 14.016858172993166 C-136.99378412632328 13.595054309225869, -137.26834801502113 13.173250445458573, -137.57599769363097 12.700617923607878 C-137.74804618672653 12.395128402317642, -137.92009467982209 12.089638881027408, -138.3466830061385 11.332188110900466 C-138.50057650017914 11.012624977731846, -138.65446999421974 10.693061844563225, -139.02810926388742 9.917191906498656 C-139.1968382106593 9.500428145819818, -139.3655671574312 9.08366438514098, -139.61747634021913 8.46144383332205 C-139.78419011304058 7.959328511816286, -139.95090388586206 7.457213190310522, -140.1123623993982 6.970925872460295 C-140.25606016641362 6.42294400782432, -140.39975793342902 5.874962143188345, -140.51073384845466 5.451762881929708 C-140.58727089061676 5.0587613465369445, -140.66380793277887 4.665759811144182, -140.81095369365403 3.9101974283178027 C-140.8528895627847 3.5849511085143506, -140.89482543191536 3.259704788710899, -141.01178826725535 2.3525641347382216 C-141.0471903405439 1.8011482672301713, -141.0825924138324 1.2497323997221208, -141.11241229691686 0.7852636505055546 C-141.11241229691686 0.3170628124978772, -141.11241229691686 -0.15113802550980016, -141.11241229691686 -0.7852636505055427 C-141.07485480673654 -1.3702518759244893, -141.03729731655622 -1.9552401013434357, -141.01178826725535 -2.352564134738188 C-140.9691022513895 -2.68362844448646, -140.92641623552365 -3.0146927542347326, -140.81095369365403 -3.910197428317791 C-140.72365990160728 -4.358432600928423, -140.6363661095605 -4.806667773539054, -140.51073384845466 -5.451762881929697 C-140.41362651549193 -5.822075229101015, -140.31651918252916 -6.192387576272333, -140.1123623993982 -6.970925872460283 C-139.96773761013438 -7.4065126948919655, -139.8231128208706 -7.842099517323648, -139.61747634021913 -8.46144383332202 C-139.47574508410577 -8.81152277610942, -139.33401382799244 -9.16160171889682, -139.02810926388742 -9.917191906498644 C-138.75598837429806 -10.48225675618526, -138.48386748470867 -11.047321605871874, -138.3466830061385 -11.332188110900455 C-138.16261253450133 -11.659023872448643, -137.9785420628642 -11.985859633996832, -137.57599769363097 -12.700617923607869 C-137.38143335050876 -12.999521002485094, -137.18686900738655 -13.29842408136232, -136.71922023762542 -14.016858172993157 C-136.50441749338793 -14.3046742813388, -136.28961474915047 -14.592490389684444, -135.77987132046673 -15.275500145538967 C-135.39067311822754 -15.732674499894209, -135.00147491598835 -16.18984885424945, -134.76181092834526 -16.471371811402253 C-134.37016613622583 -16.87577721390098, -133.9785213441064 -17.28018261639971, -133.66922248978543 -17.599559077394314 C-133.2260729759717 -18.002015740746316, -132.782923462158 -18.404472404098318, -132.50659568504085 -18.655425980043777 C-132.07058901745575 -19.003129694818206, -131.6345823498706 -19.350833409592635, -131.27870799703481 -19.634633735764933 C-130.766875070861 -19.99166622817351, -130.2550421446872 -20.348698720582092, -129.99060507965845 -20.533158569850087 C-129.60201398085798 -20.768724777557704, -129.21342288205753 -21.00429098526532, -128.64758002409647 -21.347308251023037 C-128.1310741043818 -21.616769058500342, -127.61456818466716 -21.886229865977647, -127.25515160838017 -22.073737263609267 C-126.8547811796234 -22.250969375853096, -126.45441075086663 -22.428201488096924, -125.81904161954468 -22.70946055497753 C-125.49489635735945 -22.82874900782765, -125.17075109517421 -22.948037460677774, -124.34515134157873 -23.251865801761376 C-123.80568013772658 -23.411978023322558, -123.26620893387444 -23.57209024488374, -122.83953730578295 -23.698724144456214 C-122.47151764018788 -23.782722231575534, -122.10349797459281 -23.866720318694853, -121.30838640318363 -24.0481993462811 C-120.99147212979001 -24.099435588296483, -120.67455785639639 -24.150671830311868, -119.75799046127041 -24.29885533866953 C-119.31317299543505 -24.341766344627395, -118.8683555295997 -24.38467735058526, -118.19472038952746 -24.44966212238324 C-117.60431119193062 -24.468595396188384, -117.01390199433378 -24.487528669993527, -116.62500000000001 -24.5 C-116.62500000000001 -24.5, -116.62500000000001 -24.5, -116.625 -24.5" stroke="none" stroke-width="0" fill="#1E3025" style="fill:#1E3025 !important;stroke:#4FA073 !important"></path><path d="M-116.625 -24.5 C-59.49766855329861 -24.5, -2.370337106597219 -24.5, 116.625 -24.5 M-116.625 -24.5 C-53.95954064971714 -24.5, 8.705918700565718 -24.5, 116.625 -24.5 M116.625 -24.5 C116.625 -24.5, 116.625 -24.5, 116.625 -24.5 M116.625 -24.5 C116.625 -24.5, 116.625 -24.5, 116.625 -24.5 M116.625 -24.5 C116.94393128865843 -24.48977249433482, 117.26286257731687 -24.479544988669637, 118.19472038952746 -24.44966212238324 M116.625 -24.5 C116.94902744986251 -24.48960907036408, 117.27305489972503 -24.479218140728157, 118.19472038952746 -24.44966212238324 M118.19472038952746 -24.44966212238324 C118.70706364440066 -24.400236984768537, 119.21940689927385 -24.350811847153835, 119.7579904612704 -24.29885533866953 M118.19472038952746 -24.44966212238324 C118.63862391266063 -24.40683928337868, 119.08252743579379 -24.364016444374116, 119.7579904612704 -24.29885533866953 M119.7579904612704 -24.29885533866953 C120.33021391857613 -24.206342687751526, 120.90243737588186 -24.113830036833527, 121.30838640318362 -24.048199346281102 M119.7579904612704 -24.29885533866953 C120.29116156671775 -24.21265636914448, 120.8243326721651 -24.126457399619426, 121.30838640318362 -24.048199346281102 M121.30838640318362 -24.048199346281102 C121.75138234359588 -23.947088413700676, 122.19437828400814 -23.84597748112025, 122.83953730578293 -23.69872414445622 M121.30838640318362 -24.048199346281102 C121.77377902713557 -23.94197651683476, 122.23917165108753 -23.83575368738842, 122.83953730578293 -23.69872414445622 M122.83953730578293 -23.69872414445622 C123.17641786320122 -23.598739763336603, 123.5132984206195 -23.498755382216988, 124.34515134157871 -23.251865801761383 M122.83953730578293 -23.69872414445622 C123.19087208657241 -23.594449825711802, 123.5422068673619 -23.49017550696738, 124.34515134157871 -23.251865801761383 M124.34515134157871 -23.251865801761383 C124.6555609985538 -23.137632178599137, 124.96597065552888 -23.023398555436895, 125.81904161954466 -22.709460554977532 M124.34515134157871 -23.251865801761383 C124.64794297870515 -23.140435680323648, 124.95073461583156 -23.02900555888591, 125.81904161954466 -22.709460554977532 M125.81904161954466 -22.709460554977532 C126.37971059054608 -22.46126903316931, 126.9403795615475 -22.213077511361085, 127.25515160838017 -22.07373726360927 M125.81904161954466 -22.709460554977532 C126.28879153831026 -22.501516200576244, 126.75854145707586 -22.29357184617496, 127.25515160838017 -22.07373726360927 M127.25515160838017 -22.07373726360927 C127.7293224419206 -21.826362643472144, 128.20349327546103 -21.578988023335015, 128.64758002409647 -21.347308251023044 M127.25515160838017 -22.07373726360927 C127.6661383388928 -21.859325749550404, 128.0771250694054 -21.64491423549154, 128.64758002409647 -21.347308251023044 M128.64758002409647 -21.347308251023044 C129.12205470804204 -21.05967890929249, 129.59652939198764 -20.772049567561936, 129.99060507965845 -20.533158569850098 M128.64758002409647 -21.347308251023044 C128.96884495037193 -21.1525555647526, 129.29010987664736 -20.957802878482156, 129.99060507965845 -20.533158569850098 M129.99060507965845 -20.533158569850098 C130.30822675282832 -20.311599440267415, 130.6258484259982 -20.090040310684735, 131.2787079970348 -19.634633735764936 M129.99060507965845 -20.533158569850098 C130.46712110125983 -20.20076162122707, 130.94363712286125 -19.86836467260404, 131.2787079970348 -19.634633735764936 M131.2787079970348 -19.634633735764936 C131.57940085295763 -19.394839184939414, 131.88009370888048 -19.155044634113892, 132.50659568504082 -18.655425980043795 M131.2787079970348 -19.634633735764936 C131.644746286833 -19.342727940338833, 132.01078457663124 -19.050822144912733, 132.50659568504082 -18.655425980043795 M132.50659568504082 -18.655425980043795 C132.93205547061183 -18.269034659837263, 133.35751525618284 -17.882643339630736, 133.66922248978543 -17.599559077394325 M132.50659568504082 -18.655425980043795 C132.8964324548686 -18.301386540201907, 133.2862692246964 -17.947347100360023, 133.66922248978543 -17.599559077394325 M133.66922248978543 -17.599559077394325 C133.9048959176548 -17.356206913970908, 134.1405693455242 -17.112854750547488, 134.76181092834523 -16.471371811402268 M133.66922248978543 -17.599559077394325 C133.91092808231468 -17.349978208709675, 134.1526336748439 -17.10039734002503, 134.76181092834523 -16.471371811402268 M134.76181092834523 -16.471371811402268 C135.08384327518553 -16.093094292644025, 135.4058756220258 -15.714816773885783, 135.77987132046673 -15.275500145538974 M134.76181092834523 -16.471371811402268 C135.05751775485447 -16.124017746789427, 135.3532245813637 -15.776663682176586, 135.77987132046673 -15.275500145538974 M135.77987132046673 -15.275500145538974 C136.12528259375364 -14.81268050694887, 136.47069386704052 -14.349860868358768, 136.71922023762542 -14.016858172993162 M135.77987132046673 -15.275500145538974 C136.05063194827656 -14.912705571074454, 136.32139257608637 -14.549910996609933, 136.71922023762542 -14.016858172993162 M136.71922023762542 -14.016858172993162 C137.01690266218057 -13.559538029952954, 137.31458508673572 -13.102217886912744, 137.57599769363097 -12.700617923607867 M136.71922023762542 -14.016858172993162 C136.95118987340268 -13.660490519870313, 137.18315950917992 -13.304122866747464, 137.57599769363097 -12.700617923607867 M137.57599769363097 -12.700617923607867 C137.78204505190735 -12.334759974430652, 137.98809241018373 -11.968902025253438, 138.3466830061385 -11.332188110900464 M137.57599769363097 -12.700617923607867 C137.8726597914137 -12.173864328699768, 138.16932188919645 -11.647110733791667, 138.3466830061385 -11.332188110900464 M138.3466830061385 -11.332188110900464 C138.53047864340397 -10.950532537522088, 138.71427428066943 -10.568876964143712, 139.02810926388742 -9.917191906498655 M138.3466830061385 -11.332188110900464 C138.52877676177175 -10.954066531145818, 138.710870517405 -10.575944951391172, 139.02810926388742 -9.917191906498655 M139.02810926388742 -9.917191906498655 C139.2297470001584 -9.41914279950892, 139.43138473642935 -8.921093692519186, 139.61747634021913 -8.461443833322049 M139.02810926388742 -9.917191906498655 C139.222736434707 -9.436459031713893, 139.4173636055266 -8.955726156929131, 139.61747634021913 -8.461443833322049 M139.61747634021913 -8.461443833322049 C139.78098042195626 -7.968995589967429, 139.94448450369342 -7.4765473466128105, 140.1123623993982 -6.970925872460302 M139.61747634021913 -8.461443833322049 C139.73498998220407 -8.107511466919611, 139.852503624189 -7.753579100517172, 140.1123623993982 -6.970925872460302 M140.1123623993982 -6.970925872460302 C140.25215589824361 -6.437832674477014, 140.39194939708904 -5.904739476493727, 140.51073384845466 -5.451762881929706 M140.1123623993982 -6.970925872460302 C140.22641864929386 -6.535979959316701, 140.34047489918953 -6.101034046173099, 140.51073384845466 -5.451762881929706 M140.51073384845466 -5.451762881929706 C140.58099376548688 -5.090993057407994, 140.6512536825191 -4.730223232886283, 140.81095369365403 -3.9101974283178 M140.51073384845466 -5.451762881929706 C140.61532606596882 -4.914703950567603, 140.71991828348294 -4.377645019205499, 140.81095369365403 -3.9101974283178 M140.81095369365403 -3.9101974283178 C140.86222854221873 -3.5125198282140597, 140.91350339078343 -3.1148422281103194, 141.01178826725535 -2.3525641347382074 M140.81095369365403 -3.9101974283178 C140.88560223330623 -3.3312380957968886, 140.9602507729584 -2.752278763275977, 141.01178826725535 -2.3525641347382074 M141.01178826725535 -2.3525641347382074 C141.04696918873773 -1.8045928851216937, 141.08215011022008 -1.25662163550518, 141.11241229691686 -0.7852636505055516 M141.01178826725535 -2.3525641347382074 C141.03407052879896 -2.0054999252785337, 141.0563527903426 -1.6584357158188596, 141.11241229691686 -0.7852636505055516 M141.11241229691686 -0.7852636505055516 C141.11241229691686 -0.26312652890246446, 141.11241229691686 0.25901059270062265, 141.11241229691686 0.7852636505055456 M141.11241229691686 -0.7852636505055516 C141.11241229691686 -0.4374627426865018, 141.11241229691686 -0.08966183486745205, 141.11241229691686 0.7852636505055456 M141.11241229691686 0.7852636505055456 C141.07653481147122 1.3440844461063701, 141.04065732602558 1.9029052417071948, 141.01178826725535 2.352564134738191 M141.11241229691686 0.7852636505055456 C141.0844340763128 1.2210470200270103, 141.05645585570872 1.656830389548475, 141.01178826725535 2.352564134738191 M141.01178826725535 2.352564134738191 C140.96563482549118 2.710521115033173, 140.919481383727 3.0684780953281554, 140.81095369365403 3.910197428317783 M141.01178826725535 2.352564134738191 C140.95149460616668 2.8201898638118283, 140.89120094507803 3.287815592885466, 140.81095369365403 3.910197428317783 M140.81095369365403 3.910197428317783 C140.73576211380492 4.296290299096885, 140.66057053395582 4.682383169875987, 140.51073384845466 5.4517628819296995 M140.81095369365403 3.910197428317783 C140.7423676308504 4.262372365144884, 140.67378156804676 4.614547301971985, 140.51073384845466 5.4517628819296995 M140.51073384845466 5.4517628819296995 C140.38032182357935 5.949080453708415, 140.24990979870404 6.446398025487131, 140.1123623993982 6.970925872460286 M140.51073384845466 5.4517628819296995 C140.41104304450482 5.8319271236581525, 140.311352240555 6.2120913653866054, 140.1123623993982 6.970925872460286 M140.1123623993982 6.970925872460286 C139.98232196087304 7.362586954167925, 139.85228152234785 7.754248035875564, 139.61747634021913 8.461443833322033 M140.1123623993982 6.970925872460286 C139.96415588577568 7.417300277990154, 139.81594937215314 7.8636746835200215, 139.61747634021913 8.461443833322033 M139.61747634021913 8.461443833322033 C139.48155701124904 8.797167203699626, 139.34563768227895 9.13289057407722, 139.02810926388742 9.917191906498648 M139.61747634021913 8.461443833322033 C139.48684456736407 8.784106837867549, 139.35621279450902 9.106769842413065, 139.02810926388742 9.917191906498648 M139.02810926388742 9.917191906498648 C138.869784837418 10.24595596566243, 138.71146041094858 10.574720024826213, 138.3466830061385 11.332188110900459 M139.02810926388742 9.917191906498648 C138.80629879107707 10.377786099273154, 138.58448831826672 10.838380292047658, 138.3466830061385 11.332188110900459 M138.3466830061385 11.332188110900459 C138.07610818257712 11.812621108805628, 137.8055333590157 12.293054106710796, 137.575997693631 12.700617923607862 M138.3466830061385 11.332188110900459 C138.1345854611721 11.70878877919364, 137.9224879162057 12.085389447486822, 137.575997693631 12.700617923607862 M137.575997693631 12.700617923607862 C137.31323106222038 13.104298032174814, 137.05046443080974 13.507978140741766, 136.71922023762542 14.016858172993148 M137.575997693631 12.700617923607862 C137.3997172345057 12.971432046755545, 137.22343677538038 13.242246169903227, 136.71922023762542 14.016858172993148 M136.71922023762542 14.016858172993148 C136.4524773088931 14.374269396713736, 136.18573438016077 14.731680620434322, 135.77987132046673 15.275500145538967 M136.71922023762542 14.016858172993148 C136.42261402272294 14.414283479580426, 136.12600780782043 14.811708786167705, 135.77987132046673 15.275500145538967 M135.77987132046673 15.275500145538967 C135.46838390707128 15.641390985449164, 135.15689649367587 16.00728182535936, 134.76181092834523 16.471371811402253 M135.77987132046673 15.275500145538967 C135.5115375272603 15.59070028766463, 135.24320373405385 15.905900429790291, 134.76181092834523 16.471371811402253 M134.76181092834523 16.471371811402253 C134.45126538149105 16.79203558479276, 134.14071983463688 17.112699358183264, 133.66922248978543 17.59955907739432 M134.76181092834523 16.471371811402253 C134.3369059128364 16.910121125265682, 133.91200089732754 17.348870439129115, 133.66922248978543 17.59955907739432 M133.66922248978543 17.59955907739432 C133.28851660707133 17.945306087149593, 132.9078107243572 18.29105309690486, 132.50659568504082 18.65542598004378 M133.66922248978543 17.59955907739432 C133.2943667435948 17.939993147945106, 132.91951099740416 18.28042721849589, 132.50659568504082 18.65542598004378 M132.50659568504082 18.65542598004378 C132.14899233568812 18.940605134927768, 131.79138898633545 19.225784289811756, 131.2787079970348 19.634633735764936 M132.50659568504082 18.65542598004378 C132.0467728855445 19.0221224262435, 131.5869500860482 19.388818872443217, 131.2787079970348 19.634633735764936 M131.2787079970348 19.634633735764936 C130.8332181053184 19.94538819927971, 130.38772821360197 20.256142662794478, 129.99060507965845 20.53315856985009 M131.2787079970348 19.634633735764936 C130.78999687712584 19.975537457050006, 130.3012857572169 20.31644117833508, 129.99060507965845 20.53315856985009 M129.99060507965845 20.53315856985009 C129.7043210344493 20.706705640447677, 129.41803698924014 20.880252711045262, 128.64758002409647 21.34730825102304 M129.99060507965845 20.53315856985009 C129.46196460012433 20.853623535179956, 128.9333241205902 21.174088500509825, 128.64758002409647 21.34730825102304 M128.64758002409647 21.34730825102304 C128.26886387606572 21.544884222871406, 127.89014772803499 21.742460194719776, 127.25515160838017 22.073737263609267 M128.64758002409647 21.34730825102304 C128.12504156794083 21.619916228897583, 127.6025031117852 21.892524206772123, 127.25515160838017 22.073737263609267 M127.25515160838017 22.073737263609267 C126.88756460252925 22.23645712701836, 126.51997759667834 22.399176990427456, 125.81904161954468 22.70946055497753 M127.25515160838017 22.073737263609267 C126.85829429548541 22.249414223673867, 126.46143698259064 22.425091183738463, 125.81904161954468 22.70946055497753 M125.81904161954468 22.70946055497753 C125.46075893518339 22.84131189475131, 125.10247625082211 22.97316323452509, 124.34515134157873 23.251865801761376 M125.81904161954468 22.70946055497753 C125.50075045644837 22.82659464524823, 125.18245929335205 22.94372873551893, 124.34515134157873 23.251865801761376 M124.34515134157873 23.251865801761376 C123.96370812885917 23.365076145060257, 123.58226491613962 23.47828648835914, 122.83953730578295 23.698724144456214 M124.34515134157873 23.251865801761376 C123.87076267957039 23.392661866528552, 123.39637401756205 23.533457931295725, 122.83953730578295 23.698724144456214 M122.83953730578295 23.698724144456214 C122.28375357018562 23.825578155278485, 121.72796983458831 23.952432166100756, 121.30838640318363 24.048199346281102 M122.83953730578295 23.698724144456214 C122.39844579429752 23.799400403561656, 121.95735428281206 23.900076662667097, 121.30838640318363 24.048199346281102 M121.30838640318363 24.048199346281102 C120.76132953843165 24.136643257684852, 120.21427267367967 24.225087169088606, 119.75799046127041 24.29885533866953 M121.30838640318363 24.048199346281102 C120.79877402053043 24.13058952420542, 120.28916163787723 24.212979702129736, 119.75799046127041 24.29885533866953 M119.75799046127041 24.29885533866953 C119.34573247386749 24.33862537090152, 118.93347448646456 24.37839540313351, 118.19472038952746 24.44966212238324 M119.75799046127041 24.29885533866953 C119.15939769127985 24.356600863277386, 118.56080492128929 24.414346387885242, 118.19472038952746 24.44966212238324 M118.19472038952746 24.44966212238324 C117.82112044745442 24.461642745357352, 117.44752050538136 24.47362336833146, 116.625 24.5 M118.19472038952746 24.44966212238324 C117.71951663187785 24.464900981963062, 117.24431287422824 24.480139841542883, 116.625 24.5 M116.625 24.5 C116.625 24.5, 116.625 24.5, 116.625 24.5 M116.625 24.5 C116.625 24.5, 116.625 24.5, 116.625 24.5 M116.625 24.5 C57.234003175057055 24.5, -2.156993649885891 24.5, -116.625 24.5 M116.625 24.5 C60.46146959932829 24.5, 4.297939198656579 24.5, -116.625 24.5 M-116.625 24.5 C-117.21912705525651 24.480947501736082, -117.81325411051301 24.461895003472165, -118.19472038952746 24.44966212238324 M-116.625 24.5 C-117.22274228637389 24.48083156831077, -117.82048457274777 24.46166313662154, -118.19472038952746 24.44966212238324 M-118.19472038952746 24.44966212238324 C-118.68887331378018 24.401991784086423, -119.1830262380329 24.354321445789605, -119.7579904612704 24.29885533866953 M-118.19472038952746 24.44966212238324 C-118.56393440485027 24.414044490369868, -118.9331484201731 24.378426858356494, -119.7579904612704 24.29885533866953 M-119.7579904612704 24.29885533866953 C-120.08123034767567 24.246596420598284, -120.40447023408093 24.194337502527038, -121.30838640318362 24.048199346281102 M-119.7579904612704 24.29885533866953 C-120.11216626351228 24.24159494163743, -120.46634206575418 24.184334544605328, -121.30838640318362 24.048199346281102 M-121.30838640318362 24.048199346281102 C-121.68770937703295 23.96162135281373, -122.06703235088226 23.875043359346353, -122.83953730578293 23.69872414445622 M-121.30838640318362 24.048199346281102 C-121.71653239991791 23.95504268592804, -122.1246783966522 23.86188602557497, -122.83953730578293 23.69872414445622 M-122.83953730578293 23.69872414445622 C-123.20789677669335 23.589396987048328, -123.57625624760377 23.48006982964044, -124.3451513415787 23.251865801761387 M-122.83953730578293 23.69872414445622 C-123.3115036446224 23.558647012490532, -123.7834699834619 23.41856988052484, -124.3451513415787 23.251865801761387 M-124.3451513415787 23.251865801761387 C-124.6646408399804 23.134290713021013, -124.98413033838209 23.01671562428064, -125.81904161954466 22.709460554977532 M-124.3451513415787 23.251865801761387 C-124.69308557528254 23.123822787489573, -125.04101980898639 22.99577977321776, -125.81904161954466 22.709460554977532 M-125.81904161954466 22.709460554977532 C-126.32413160016898 22.48587220351708, -126.82922158079329 22.26228385205663, -127.25515160838017 22.07373726360927 M-125.81904161954466 22.709460554977532 C-126.11476187635044 22.57855396951936, -126.41048213315621 22.447647384061185, -127.25515160838017 22.07373726360927 M-127.25515160838017 22.07373726360927 C-127.70506122718584 21.839019703659222, -128.1549708459915 21.604302143709173, -128.64758002409647 21.347308251023048 M-127.25515160838017 22.07373726360927 C-127.76065896027511 21.810014401918597, -128.26616631217004 21.546291540227926, -128.64758002409647 21.347308251023048 M-128.64758002409647 21.347308251023048 C-129.05735212638993 21.098901994524585, -129.4671242286834 20.85049573802612, -129.99060507965842 20.533158569850105 M-128.64758002409647 21.347308251023048 C-128.95221512246079 21.16263666416004, -129.25685022082513 20.977965077297032, -129.99060507965842 20.533158569850105 M-129.99060507965842 20.533158569850105 C-130.3757528880209 20.264496131516335, -130.7609006963834 19.99583369318257, -131.2787079970348 19.63463373576494 M-129.99060507965842 20.533158569850105 C-130.31092249665383 20.309719006071603, -130.63123991364924 20.086279442293105, -131.2787079970348 19.63463373576494 M-131.2787079970348 19.63463373576494 C-131.62366139711304 19.35954257879803, -131.9686147971913 19.084451421831126, -132.50659568504082 18.6554259800438 M-131.2787079970348 19.63463373576494 C-131.5554420324037 19.413945706760185, -131.83217606777262 19.193257677755426, -132.50659568504082 18.6554259800438 M-132.50659568504082 18.6554259800438 C-132.76100617804886 18.42437710162667, -133.0154166710569 18.19332822320954, -133.6692224897854 17.599559077394336 M-132.50659568504082 18.6554259800438 C-132.93003632465445 18.270868394772076, -133.35347696426808 17.886310809500355, -133.6692224897854 17.599559077394336 M-133.6692224897854 17.599559077394336 C-134.0665719055272 17.189263182647174, -134.46392132126903 16.778967287900013, -134.76181092834523 16.47137181140226 M-133.6692224897854 17.599559077394336 C-133.8901735302288 17.371408987718745, -134.1111245706722 17.143258898043154, -134.76181092834523 16.47137181140226 M-134.76181092834523 16.47137181140226 C-135.03191326489684 16.1540942376304, -135.30201560144843 15.83681666385854, -135.77987132046673 15.275500145538976 M-134.76181092834523 16.47137181140226 C-135.0137603204839 16.17541771906963, -135.26570971262257 15.879463626737005, -135.77987132046673 15.275500145538976 M-135.77987132046673 15.275500145538976 C-135.9799386424624 15.007428160572776, -136.18000596445805 14.739356175606575, -136.71922023762542 14.016858172993166 M-135.77987132046673 15.275500145538976 C-136.1091161592456 14.834342056397151, -136.43836099802448 14.393183967255329, -136.71922023762542 14.016858172993166 M-136.71922023762542 14.016858172993166 C-136.96411420391615 13.640635277532915, -137.20900817020689 13.264412382072665, -137.57599769363097 12.700617923607878 M-136.71922023762542 14.016858172993166 C-136.98782297540686 13.604212237826628, -137.2564257131883 13.19156630266009, -137.57599769363097 12.700617923607878 M-137.57599769363097 12.700617923607878 C-137.85686833827566 12.201903652804376, -138.13773898292038 11.703189382000875, -138.3466830061385 11.332188110900466 M-137.57599769363097 12.700617923607878 C-137.85428528263378 12.206490129659326, -138.13257287163657 11.712362335710772, -138.3466830061385 11.332188110900466 M-138.3466830061385 11.332188110900466 C-138.53082161547732 10.949820348673335, -138.71496022481614 10.567452586446201, -139.02810926388742 9.917191906498656 M-138.3466830061385 11.332188110900466 C-138.49787801619297 11.018228437467428, -138.6490730262474 10.70426876403439, -139.02810926388742 9.917191906498656 M-139.02810926388742 9.917191906498656 C-139.1809253787238 9.53973314835422, -139.33374149356015 9.162274390209783, -139.61747634021913 8.46144383332205 M-139.02810926388742 9.917191906498656 C-139.2282326448407 9.422883286421701, -139.42835602579396 8.928574666344746, -139.61747634021913 8.46144383332205 M-139.61747634021913 8.46144383332205 C-139.81069396661383 7.8795031276693415, -140.0039115930085 7.297562422016632, -140.1123623993982 6.970925872460295 M-139.61747634021913 8.46144383332205 C-139.7577942881027 8.038828530925596, -139.8981122359863 7.616213228529142, -140.1123623993982 6.970925872460295 M-140.1123623993982 6.970925872460295 C-140.2500769228467 6.445760708699188, -140.38779144629515 5.920595544938081, -140.51073384845466 5.451762881929708 M-140.1123623993982 6.970925872460295 C-140.21398040676533 6.583412368846372, -140.31559841413247 6.195898865232448, -140.51073384845466 5.451762881929708 M-140.51073384845466 5.451762881929708 C-140.61608954474752 4.910783648400264, -140.72144524104036 4.369804414870819, -140.81095369365403 3.9101974283178027 M-140.51073384845466 5.451762881929708 C-140.58287723777963 5.081321825256791, -140.6550206271046 4.710880768583873, -140.81095369365403 3.9101974283178027 M-140.81095369365403 3.9101974283178027 C-140.85854472016308 3.5410908246247708, -140.90613574667213 3.171984220931739, -141.01178826725535 2.3525641347382216 M-140.81095369365403 3.9101974283178027 C-140.8645903322779 3.4942022509032915, -140.9182269709018 3.0782070734887808, -141.01178826725535 2.3525641347382216 M-141.01178826725535 2.3525641347382216 C-141.05141260259924 1.735383127569491, -141.09103693794313 1.1182021204007604, -141.11241229691686 0.7852636505055546 M-141.01178826725535 2.3525641347382216 C-141.03329043622713 2.017650496764186, -141.05479260519894 1.68273685879015, -141.11241229691686 0.7852636505055546 M-141.11241229691686 0.7852636505055546 C-141.11241229691686 0.3964478374063527, -141.11241229691686 0.00763202430715082, -141.11241229691686 -0.7852636505055427 M-141.11241229691686 0.7852636505055546 C-141.11241229691686 0.45136417580174415, -141.11241229691686 0.11746470109793372, -141.11241229691686 -0.7852636505055427 M-141.11241229691686 -0.7852636505055427 C-141.0879018841963 -1.1670331130773173, -141.06339147147574 -1.5488025756490917, -141.01178826725535 -2.352564134738188 M-141.11241229691686 -0.7852636505055427 C-141.07912841479882 -1.303686980760003, -141.04584453268077 -1.822110311014463, -141.01178826725535 -2.352564134738188 M-141.01178826725535 -2.352564134738188 C-140.9676649664313 -2.694775742798316, -140.92354166560725 -3.0369873508584444, -140.81095369365403 -3.910197428317791 M-141.01178826725535 -2.352564134738188 C-140.96521106525236 -2.713807715764532, -140.91863386324937 -3.075051296790876, -140.81095369365403 -3.910197428317791 M-140.81095369365403 -3.910197428317791 C-140.69120188022939 -4.525097680698508, -140.57145006680477 -5.139997933079225, -140.51073384845466 -5.451762881929697 M-140.81095369365403 -3.910197428317791 C-140.71561173723467 -4.399758224001538, -140.6202697808153 -4.889319019685283, -140.51073384845466 -5.451762881929697 M-140.51073384845466 -5.451762881929697 C-140.41021241369077 -5.835094678949813, -140.3096909789269 -6.218426475969928, -140.1123623993982 -6.970925872460283 M-140.51073384845466 -5.451762881929697 C-140.39946354091526 -5.876084789433749, -140.2881932333759 -6.300406696937802, -140.1123623993982 -6.970925872460283 M-140.1123623993982 -6.970925872460283 C-139.95530311937358 -7.44396339989648, -139.79824383934894 -7.917000927332675, -139.61747634021913 -8.46144383332202 M-140.1123623993982 -6.970925872460283 C-139.9926917145309 -7.331354908346282, -139.8730210296636 -7.69178394423228, -139.61747634021913 -8.46144383332202 M-139.61747634021913 -8.46144383332202 C-139.43302739623172 -8.917036291048628, -139.24857845224435 -9.372628748775234, -139.02810926388742 -9.917191906498644 M-139.61747634021913 -8.46144383332202 C-139.48827433000147 -8.780575296510586, -139.35907231978382 -9.09970675969915, -139.02810926388742 -9.917191906498644 M-139.02810926388742 -9.917191906498644 C-138.77085648631098 -10.45138280346378, -138.51360370873454 -10.985573700428917, -138.3466830061385 -11.332188110900455 M-139.02810926388742 -9.917191906498644 C-138.86604939051153 -10.253712701089476, -138.70398951713562 -10.590233495680309, -138.3466830061385 -11.332188110900455 M-138.3466830061385 -11.332188110900455 C-138.05602164435453 -11.848286791402325, -137.76536028257058 -12.364385471904194, -137.57599769363097 -12.700617923607869 M-138.3466830061385 -11.332188110900455 C-138.04111360889428 -11.874757517964285, -137.73554421165008 -12.417326925028117, -137.57599769363097 -12.700617923607869 M-137.57599769363097 -12.700617923607869 C-137.3955010614369 -12.977909220790162, -137.21500442924284 -13.255200517972455, -136.71922023762542 -14.016858172993157 M-137.57599769363097 -12.700617923607869 C-137.30060989308652 -13.123687537222843, -137.02522209254207 -13.546757150837818, -136.71922023762542 -14.016858172993157 M-136.71922023762542 -14.016858172993157 C-136.49125141804342 -14.322315622846318, -136.26328259846142 -14.62777307269948, -135.77987132046673 -15.275500145538967 M-136.71922023762542 -14.016858172993157 C-136.4095424620381 -14.431798180054434, -136.09986468645076 -14.846738187115713, -135.77987132046673 -15.275500145538967 M-135.77987132046673 -15.275500145538967 C-135.50027449476843 -15.603930486514278, -135.2206776690701 -15.932360827489589, -134.76181092834526 -16.471371811402253 M-135.77987132046673 -15.275500145538967 C-135.40891423256065 -15.711247449049713, -135.0379571446546 -16.14699475256046, -134.76181092834526 -16.471371811402253 M-134.76181092834526 -16.471371811402253 C-134.4720480801476 -16.770575742138607, -134.18228523194992 -17.069779672874965, -133.66922248978543 -17.599559077394314 M-134.76181092834526 -16.471371811402253 C-134.3602663259837 -16.885999580765517, -133.95872172362215 -17.30062735012878, -133.66922248978543 -17.599559077394314 M-133.66922248978543 -17.599559077394314 C-133.43649749089911 -17.81091376381682, -133.2037724920128 -18.022268450239324, -132.50659568504085 -18.655425980043777 M-133.66922248978543 -17.599559077394314 C-133.21007651014907 -18.016543307763147, -132.7509305305127 -18.433527538131976, -132.50659568504085 -18.655425980043777 M-132.50659568504085 -18.655425980043777 C-132.21057435279153 -18.89149511505413, -131.9145530205422 -19.127564250064488, -131.27870799703481 -19.634633735764933 M-132.50659568504085 -18.655425980043777 C-132.10439106477904 -18.976173461588118, -131.70218644451725 -19.296920943132456, -131.27870799703481 -19.634633735764933 M-131.27870799703481 -19.634633735764933 C-130.78256430906578 -19.98072209477803, -130.28642062109674 -20.326810453791133, -129.99060507965845 -20.533158569850087 M-131.27870799703481 -19.634633735764933 C-130.9203227148841 -19.884627794344457, -130.56193743273337 -20.134621852923978, -129.99060507965845 -20.533158569850087 M-129.99060507965845 -20.533158569850087 C-129.70188529440705 -20.708182200375273, -129.41316550915565 -20.883205830900458, -128.64758002409647 -21.347308251023037 M-129.99060507965845 -20.533158569850087 C-129.50370190819135 -20.82832213375409, -129.01679873672424 -21.12348569765809, -128.64758002409647 -21.347308251023037 M-128.64758002409647 -21.347308251023037 C-128.2104620072018 -21.575352440449528, -127.77334399030715 -21.80339662987602, -127.25515160838017 -22.073737263609267 M-128.64758002409647 -21.347308251023037 C-128.1571512676853 -21.603164619108142, -127.6667225112741 -21.859020987193244, -127.25515160838017 -22.073737263609267 M-127.25515160838017 -22.073737263609267 C-126.7741296179263 -22.286671429772824, -126.29310762747245 -22.49960559593638, -125.81904161954468 -22.70946055497753 M-127.25515160838017 -22.073737263609267 C-126.84931765976066 -22.253387914026774, -126.44348371114114 -22.43303856444428, -125.81904161954468 -22.70946055497753 M-125.81904161954468 -22.70946055497753 C-125.41995191116958 -22.85632925680439, -125.02086220279448 -23.00319795863125, -124.34515134157873 -23.251865801761376 M-125.81904161954468 -22.70946055497753 C-125.30014799779616 -22.90041820438104, -124.78125437604766 -23.09137585378455, -124.34515134157873 -23.251865801761376 M-124.34515134157873 -23.251865801761376 C-123.8111773316699 -23.410346485015545, -123.27720332176106 -23.56882716826971, -122.83953730578295 -23.698724144456214 M-124.34515134157873 -23.251865801761376 C-123.93326642906578 -23.374111081767193, -123.52138151655284 -23.49635636177301, -122.83953730578295 -23.698724144456214 M-122.83953730578295 -23.698724144456214 C-122.41530038036977 -23.795553454277112, -121.9910634549566 -23.892382764098013, -121.30838640318363 -24.0481993462811 M-122.83953730578295 -23.698724144456214 C-122.52556781624155 -23.77038563160165, -122.21159832670013 -23.842047118747082, -121.30838640318363 -24.0481993462811 M-121.30838640318363 -24.0481993462811 C-120.70348232657985 -24.145995546285224, -120.09857824997607 -24.243791746289347, -119.75799046127041 -24.29885533866953 M-121.30838640318363 -24.0481993462811 C-120.91934820511308 -24.11109602510886, -120.53031000704252 -24.173992703936623, -119.75799046127041 -24.29885533866953 M-119.75799046127041 -24.29885533866953 C-119.26761310808985 -24.346161452165806, -118.77723575490927 -24.393467565662082, -118.19472038952746 -24.44966212238324 M-119.75799046127041 -24.29885533866953 C-119.33206660627393 -24.33994370071266, -118.90614275127744 -24.381032062755793, -118.19472038952746 -24.44966212238324 M-118.19472038952746 -24.44966212238324 C-117.7981541559744 -24.46237922962394, -117.40158792242133 -24.47509633686464, -116.62500000000001 -24.5 M-118.19472038952746 -24.44966212238324 C-117.86963155963781 -24.46008708841078, -117.54454272974814 -24.470512054438323, -116.62500000000001 -24.5 M-116.62500000000001 -24.5 C-116.62500000000001 -24.5, -116.625 -24.5, -116.625 -24.5 M-116.62500000000001 -24.5 C-116.62500000000001 -24.5, -116.625 -24.5, -116.625 -24.5" stroke="#4FA073" stroke-width="1.3" fill="none" stroke-dasharray="0 0" style="fill:#1E3025 !important;stroke:#4FA073 !important"></path></g><g class="label" style="color:#EDE6D7 !important" transform="translate(-130, -19.5)"><rect></rect><foreignObject width="260" height="39"><div style="color: rgb(237, 230, 215) !important; display: table; white-space: break-spaces; line-height: 1.5; max-width: 260px; text-align: center; width: 260px;" xmlns="http://www.w3.org/1999/xhtml"><span style="color:#EDE6D7 !important" class="nodeLabel "><p>➕ attention → Transformer (Module 5) · §20.4</p></span></div></foreignObject></g></g><g class="node default  " id="d65289a34638dbd43-flowchart-BUILD-24" data-look="classic" transform="translate(1070.55859375, 1002.75)"><rect class="basic label-container" style="" x="-150" y="-39.25" width="300" height="78.5"></rect><g class="label" style="" transform="translate(-130, -29.25)"><rect></rect><foreignObject width="260" height="58.5"><div xmlns="http://www.w3.org/1999/xhtml" style="display: table; white-space: break-spaces; line-height: 1.5; max-width: 260px; text-align: center; width: 260px;"><span class="nodeLabel "><p><b>And how to build all of it</b> · §21–25<br/><small>Tensors → Autograd (backward() IS BPTT) → nn.Module → DataLoader → the 5-step loop</small></p></span></div></foreignObject></g></g></g></g></g><defs><filter id="d65289a34638dbd43-drop-shadow" height="130%" width="130%"><feDropShadow dx="4" dy="4" stdDeviation="0" flood-opacity="0.06" flood-color="#000000"></feDropShadow></filter></defs><defs><filter id="d65289a34638dbd43-drop-shadow-small" height="150%" width="150%"><feDropShadow dx="2" dy="2" stdDeviation="0" flood-opacity="0.06" flood-color="#000000"></feDropShadow></filter></defs><linearGradient id="d65289a34638dbd43-gradient" gradientUnits="objectBoundingBox" x1="0%" y1="0%" x2="100%" y2="0%"><stop offset="0%" stop-color="#4C4739" stop-opacity="1"></stop><stop offset="100%" stop-color="#4C4739" stop-opacity="1"></stop></linearGradient></svg>